<svg width="8" height="12" viewBox="0 0 8 12" fill="none" xmlns="http://www.w3.org/2000/svg">
<path fill-rule="evenodd" clip-rule="evenodd" d="M0.910981 6.58929C0.754755 6.43302 0.666992 6.22109 0.666992 6.00012C0.666992 5.77915 0.754755 5.56723 0.910981 5.41096L5.62515 0.69679C5.70202 0.617198 5.79397 0.553713 5.89564 0.510039C5.99731 0.466364 6.10666 0.443376 6.21731 0.442414C6.32796 0.441453 6.4377 0.462538 6.54011 0.504438C6.64252 0.546339 6.73557 0.608217 6.81381 0.686461C6.89205 0.764705 6.95393 0.857748 6.99583 0.960161C7.03773 1.06257 7.05882 1.17231 7.05786 1.28296C7.05689 1.39361 7.03391 1.50296 6.99023 1.60463C6.94656 1.7063 6.88307 1.79825 6.80348 1.87512L2.67848 6.00012L6.80348 10.1251C6.95528 10.2823 7.03927 10.4928 7.03738 10.7113C7.03548 10.9298 6.94784 11.1388 6.79333 11.2933C6.63882 11.4478 6.42981 11.5355 6.21132 11.5374C5.99282 11.5393 5.78232 11.4553 5.62515 11.3035L0.910981 6.58929Z" fill="#273340"/>
</svg>
