<svg width="24" height="24" viewBox="0 0 24 24" fill="none" xmlns="http://www.w3.org/2000/svg">
<path fill-rule="evenodd" clip-rule="evenodd" d="M6.42023 4.83026C6.20697 4.63154 5.9249 4.52335 5.63345 4.5285C5.34199 4.53364 5.06392 4.65171 4.8578 4.85783C4.65168 5.06394 4.53361 5.34202 4.52847 5.63347C4.52333 5.92493 4.63151 6.207 4.83023 6.42026L10.4102 12.0003L4.83023 17.5803C4.7197 17.6833 4.63105 17.8075 4.56956 17.9455C4.50807 18.0834 4.47501 18.2324 4.47234 18.3835C4.46968 18.5345 4.49746 18.6846 4.55405 18.8247C4.61063 18.9647 4.69484 19.092 4.80167 19.1988C4.9085 19.3056 5.03575 19.3899 5.17583 19.4464C5.31592 19.503 5.46596 19.5308 5.61701 19.5281C5.76807 19.5255 5.91704 19.4924 6.05504 19.4309C6.19304 19.3694 6.31724 19.2808 6.42023 19.1703L12.0002 13.5903L17.5802 19.1703C17.6832 19.2808 17.8074 19.3694 17.9454 19.4309C18.0834 19.4924 18.2324 19.5255 18.3834 19.5281C18.5345 19.5308 18.6845 19.503 18.8246 19.4464C18.9647 19.3899 19.092 19.3056 19.1988 19.1988C19.3056 19.092 19.3898 18.9647 19.4464 18.8247C19.503 18.6846 19.5308 18.5345 19.5281 18.3835C19.5255 18.2324 19.4924 18.0834 19.4309 17.9455C19.3694 17.8075 19.2808 17.6833 19.1702 17.5803L13.5902 12.0003L19.1702 6.42026C19.3689 6.207 19.4771 5.92493 19.472 5.63347C19.4669 5.34202 19.3488 5.06394 19.1427 4.85783C18.9365 4.65171 18.6585 4.53364 18.367 4.5285C18.0756 4.52335 17.7935 4.63154 17.5802 4.83026L12.0002 10.4103L6.42023 4.83026Z" fill="white"/>
</svg>
