<svg width="179" height="84" viewBox="0 0 179 84" fill="none" xmlns="http://www.w3.org/2000/svg">
<g opacity="0.2" clip-path="url(#clip0_170_1116)">
<path d="M174.311 20.7911L174.257 20.7603V20.8065L174.311 20.7911ZM173.774 20.3759L173.899 20.3297V20.2682L173.774 20.3759ZM175.993 19.1763L175.975 18.961L175.939 18.838L175.993 19.1763ZM168.171 17.5923L168.046 17.6384L167.025 17.8999L166.667 18.0075L166.256 18.1152L166.112 18.1613V18.2075L166.166 19.0072L166.22 19.7453L166.273 20.422L166.363 20.4681L166.685 20.3913L168.135 20.0222L168.171 20.0991L170.748 19.2532L170.766 19.284L170.999 19.2071L171.822 18.9303L172.61 19.7453L172.717 19.6684L172.771 19.4378L172.753 19.8069H172.932L172.986 19.9914L173.147 20.2528L173.988 19.3762L174.686 19.5762L174.848 19.2686L175.993 18.7457L175.51 17.9306L175.635 18.4535L175.044 18.838L174.382 18.8841L173.058 17.6692L172.467 16.9003L173.058 16.362L172.449 16.3312L172.198 15.8237L172.18 15.793L171.16 16.7465L168.905 17.3924L168.171 17.5923Z" fill="#273340" stroke="white" stroke-width="0.391259" stroke-linejoin="round"/>
<path d="M100.957 8.24274L101.315 9.33464L102.066 13.2716L102.424 14.8403L102.532 16.2244L102.943 17.0548L103.033 17.7623L103.105 17.9929L103.087 18.0391L102.371 19.0541L102.836 19.7308L103.731 25.1441L103.767 25.8516L104.662 25.8054L108.188 25.6363L116.995 25.0057L117.872 24.9288V24.8519L117.621 23.6678L116.53 23.191L115.67 22.4221L114.31 21.7146L113.88 21.6839L113.218 21.2533L113.397 19.131L112.771 18.6389L112.985 17.7776L114.131 16.8857L113.934 15.0402L114.346 14.6404L115.742 13.3793L117.335 11.6261L117.944 11.257L119.018 10.811L120.145 10.0882L119.394 10.2112L118.946 9.91903L117.228 10.119L116.959 9.84214L115.42 10.3804L114.185 9.93441L113.845 9.5807L112.86 9.64221L112.198 9.35002L112.413 9.13471L111.571 8.90403H110.819L109.62 9.35002L109.387 9.04244L107.49 8.81175L106.846 7.42765L106.774 7.01243L105.951 6.8125L106.022 7.99667L103.838 8.13508L101.136 8.22736L100.957 8.24274Z" fill="#273340" stroke="white" stroke-width="0.391259" stroke-linejoin="round"/>
<path d="M83.8262 8.10335L77.9013 7.76502L73.5874 7.4113L69.2914 6.98069L66.6243 6.67311L62.3641 6.1041L60.234 5.79652L55.4726 5.0122L54.9714 4.91992L54.2017 8.05721L54.5418 8.62623L54.8103 9.50283L54.6492 9.62586L54.9893 10.4256L55.4547 10.7639L56.7793 12.6709L56.9046 12.9938L57.4416 12.9631L56.8151 15.4852L56.5645 15.5467L56.2244 16.3926L57.9965 16.5002L58.1397 17.2076L59.1421 19.3146L59.3211 19.4376L60.0192 20.6679L60.1982 20.5449L61.6839 20.5295L63.5634 20.6987L64.0288 20.1758L64.5837 21.037L64.6911 21.0831L64.709 20.9909L64.9596 19.4837L71.0814 20.1296L75.9681 20.5295L78.5457 20.714L83.146 20.9447L83.3787 20.9601H83.4324L83.4503 20.7448L83.504 19.6837L83.5756 18.2842L83.5935 17.9305L83.6293 17.3153L83.9157 12.4863L84.1484 8.73389L84.1663 8.11873L83.8262 8.10335Z" fill="#273340" stroke="white" stroke-width="0.391259" stroke-linejoin="round"/>
<path d="M100.58 8.24315L95.1746 8.33542L91.3977 8.32004L88.1578 8.25853L84.363 8.1355L84.1661 8.12012L84.1482 8.73527L83.9155 12.4877L83.6291 17.3167L83.5933 17.9318L84.2914 17.9626L92.1853 18.1471L99.4706 18.101L102.496 18.0241L103.104 17.9934L103.033 17.7627L102.943 17.0552L102.531 16.2248L102.424 14.8407L102.066 13.272L101.314 9.33505L100.956 8.24315L100.58 8.24315Z" fill="#273340" stroke="white" stroke-width="0.391259" stroke-linejoin="round"/>
<path d="M74.733 78.1396L74.1781 77.7859L73.6948 77.8935L73.8022 78.7548L73.1399 79.4622L73.7127 80.5848L73.8738 81.7383L74.5361 82.1074L74.9478 81.5383L75.6817 81.077L76.5767 80.877L77.5612 80.1542L76.5946 79.4468L76.5767 79.0162L74.733 78.1396ZM71.4752 76.8939L71.2067 76.694L70.9561 76.9862L71.4752 76.8939ZM70.1327 76.2326L70.2043 75.6636L69.8642 75.6175L70.1327 76.2326ZM71.2604 75.2945L70.9561 75.4175L71.1709 76.0019L71.6363 76.0327L71.7795 76.5402L72.2807 76.7247L73.3905 76.2788L72.3523 75.5406L71.2604 75.2945ZM68.9692 74.664L68.8081 75.0792L69.5778 75.0638L70.2938 75.2176L69.9179 74.7101L68.9692 74.664ZM66.7138 73.449L66.3021 73.1107L65.5145 73.6336L66.0157 74.4333L66.3737 74.1103L67.394 74.2949L67.3045 73.9258L66.7138 73.449ZM58.6946 72.7724L58.802 72.5571L59.1063 72.4187L58.6946 72.7724ZM61.5407 71.3729L60.2877 71.7727L60.1624 72.0649L60.6636 72.3725L61.3617 72.5263L61.8629 71.6805L61.5407 71.3729ZM52.8592 68.5432V68.5278H52.8234L52.8592 68.5432ZM43.3722 66.5285V66.5593H43.3901L43.3722 66.5285ZM38.038 65.3598H38.0022V65.3751L38.038 65.3598ZM32.5248 61.3766L32.5069 61.3305V61.3459L32.5248 61.3766ZM20.2633 58.0086L20.2096 58.0548L20.2454 58.0702L20.2633 58.0086ZM0.000488281 47.3665L0.0541883 47.3511V47.3203L0.000488281 47.3665Z" fill="#273340"/>
<path d="M38.396 65.8211L38.4139 65.8365M38.1633 65.3598H38.1454V65.3444M7.73329 50.2577H7.71539M74.733 78.1396L74.1781 77.7859L73.6948 77.8935L73.8022 78.7548L73.1399 79.4622L73.7127 80.5848L73.8738 81.7383L74.5361 82.1074L74.9478 81.5383L75.6817 81.077L76.5767 80.877L77.5612 80.1542L76.5946 79.4468L76.5767 79.0162L74.733 78.1396ZM71.4752 76.8939L71.2067 76.694L70.9561 76.9862L71.4752 76.8939ZM70.1327 76.2326L70.2043 75.6636L69.8642 75.6175L70.1327 76.2326ZM71.2604 75.2945L70.9561 75.4175L71.1709 76.0019L71.6363 76.0327L71.7795 76.5402L72.2807 76.7247L73.3905 76.2788L72.3523 75.5406L71.2604 75.2945ZM68.9692 74.664L68.8081 75.0792L69.5778 75.0638L70.2938 75.2176L69.9179 74.7101L68.9692 74.664ZM66.7138 73.449L66.3021 73.1107L65.5145 73.6336L66.0157 74.4333L66.3737 74.1103L67.394 74.2949L67.3045 73.9258L66.7138 73.449ZM58.6946 72.7724L58.802 72.5571L59.1063 72.4187L58.6946 72.7724ZM61.5407 71.3729L60.2877 71.7727L60.1624 72.0649L60.6636 72.3725L61.3617 72.5263L61.8629 71.6805L61.5407 71.3729ZM52.8592 68.5432V68.5278H52.8234L52.8592 68.5432ZM43.3722 66.5285V66.5593H43.3901L43.3722 66.5285ZM38.038 65.3598H38.0022V65.3751L38.038 65.3598ZM32.5248 61.3766L32.5069 61.3305V61.3459L32.5248 61.3766ZM20.2633 58.0086L20.2096 58.0548L20.2454 58.0702L20.2633 58.0086ZM0.000488281 47.3665L0.0541883 47.3511V47.3203L0.000488281 47.3665Z" stroke="white" stroke-width="0.391259" stroke-linejoin="round"/>
<path d="M54.9536 4.92084L53.3605 4.64402L52.8414 4.53637L52.6087 4.49023L50.5323 12.518L50.6218 13.1793L50.5502 13.8714L50.586 14.0251V14.0405L50.6039 14.3327L51.2125 14.9017L50.3354 16.7933L48.4738 18.8849L48.4201 19.2693L48.9034 20.2536L47.2029 26.3129L47.1313 26.6358L47.6325 26.7281L52.6982 27.5893L54.721 27.9123L55.24 27.9892L55.7413 28.0661L58.3188 28.4198L62.9371 29.0196L63.4562 29.0811L63.5278 28.5736L63.6889 27.5739L64.2975 23.5754L64.6197 21.5916L64.6913 21.0841L64.5839 21.0379L64.029 20.1767L63.5636 20.6996L61.6841 20.5304L60.1983 20.5458L60.0194 20.6688L59.3213 19.4385L59.1423 19.3155L58.1399 17.2086L57.9967 16.5012L56.2245 16.3935L56.5647 15.5477L56.8153 15.4861L57.4417 12.964L56.9048 12.9948L56.7795 12.6718L55.4548 10.7648L54.9894 10.4265L54.6494 9.62679L54.8105 9.50376L54.5419 8.62716L54.2018 8.05815L54.9715 4.92085L54.9536 4.92084Z" fill="#273340" stroke="white" stroke-width="0.391259" stroke-linejoin="round"/>
<path d="M33.3844 8.75005L33.4023 8.48861L33.3665 8.50398L33.3844 8.75005ZM37.1971 7.35057L37.3045 7.19678L37.1792 7.1814L37.1971 7.35057ZM36.857 7.07375L36.9644 6.76617L36.857 6.73541V7.07375ZM38.1637 6.62776L38.1458 6.32018L37.8415 6.72003L38.1637 6.62776ZM38.1995 5.98185L38.2532 5.67427L38.2174 5.59737L38.1995 5.98185ZM38.2532 4.47472L38.2353 4.30555L38.1637 4.29017L38.2532 4.47472ZM38.826 3.45971L38.6649 3.44433L38.3427 3.87494L38.826 3.45971ZM38.3785 3.04448L38.468 2.98296L38.4859 2.93683L38.3785 3.04448ZM38.289 3.09062L38.2353 2.78304L38.0742 3.04448L38.289 3.09062ZM38.1995 2.66001L38.0384 2.59849L38.1637 2.75228L38.1995 2.66001ZM38.7365 2.92145V2.72152L38.6828 2.79842L38.7365 2.92145ZM38.8976 2.72152L38.826 2.67539H38.8081L38.8976 2.72152ZM37.8773 2.38319L37.7878 2.32167L37.752 2.30629L37.8773 2.38319ZM38.5396 2.32167L38.0563 2.42932L38.1816 2.46008L38.5396 2.32167ZM38.1458 2.29091L38.0563 2.19864L38.0384 2.21402L38.1458 2.29091ZM38.5217 2.10637H38.4501L38.5396 2.13713L38.5217 2.10637ZM35.0133 9.99574L35.6577 10.5955L35.5503 11.7489L35.6756 12.0411L36.6422 12.4871L39.363 12.7024L39.4704 12.9792L40.7592 12.9946L41.9764 13.133L43.9633 12.9485L44.9478 13.0869L45.2163 12.9792L50.2462 13.9635L50.5863 14.025L50.5505 13.8712L50.6221 13.1792L50.5326 12.5179L52.609 4.4901L52.3226 4.44396L48.134 3.59813L44.4824 2.79842L40.3475 1.81418L39.1124 1.55273L39.3988 2.8907L39.1303 3.32131L38.647 3.106L39.1124 4.96685L38.6112 5.582L38.3785 6.15102V6.73542L37.3224 7.36595L36.8749 7.11989L36.4453 7.30444L37.2329 6.42784L37.036 7.02762L37.4835 6.61239L37.8415 6.6739L37.7341 5.90496L37.9668 5.93572L38.4501 5.01298L38.289 4.87457L37.6625 5.56662L37.2508 5.582L37.6983 5.15139L38.1995 5.04374L38.0205 4.25942L37.5193 4.15177L37.2687 3.78267L36.9644 3.92108L35.3176 3.30593L33.8677 2.33706L33.4739 3.27517L33.4381 3.67502L33.7424 4.38245L33.5455 6.6739L33.4023 7.02762L34.2078 7.08913L33.4023 7.58126L33.8319 7.7658L33.4918 8.75005L33.3307 7.98111L33.0264 8.87308L33.4381 9.30369L33.8856 9.27293L34.4226 9.54975L34.6911 9.99574L35.0133 9.99574Z" fill="#273340" stroke="white" stroke-width="0.391259" stroke-linejoin="round"/>
<path d="M66.5886 45.6441L60.5562 44.9982L57.3163 44.5983L52.6981 43.9678L52.2327 43.9062V43.937L51.4451 46.9205L51.0334 46.9051L50.4069 46.4284L49.6193 46.9974L49.6014 49.4426L49.315 49.9655V50.0117V50.027L49.2792 50.4115L49.9057 51.8571L50.4606 52.503L49.4582 53.0106L49.0644 53.6411L48.42 54.9944L48.0978 55.0559L48.0799 56.1786L48.6348 56.5323L48.3484 57.209L47.704 57.2397L47.3281 57.8395L48.6169 58.5316L51.0513 59.7004L58.5693 63.1299L64.9417 63.8065H65.0133L65.5145 59.2698L65.6398 58.1471L66.9823 46.2438L67.0539 45.6902L66.5886 45.6441Z" fill="#273340" stroke="white" stroke-width="0.391259" stroke-linejoin="round"/>
<path d="M35.9436 54.1797L36.0152 54.5181V54.5796L35.9436 54.1797ZM33.3122 52.8572L33.4376 53.0878L33.5091 53.0725L33.3122 52.8572ZM36.4447 52.811L36.4985 53.2109L36.8207 53.4108L36.4447 52.811ZM34.2789 50.6272L34.0819 50.5811L34.2431 50.6426L34.2789 50.6272ZM32.2919 50.1659L31.8086 50.4119L31.9339 50.5196L32.2919 50.1659ZM31.3611 49.8737L31.3253 49.9967L31.4864 50.0274L31.3611 49.8737ZM32.9363 50.1812L33.7239 50.5657L33.8671 50.4581L32.9363 50.1812ZM28.7477 36.7093L28.7298 36.6632V36.7247L28.7477 36.7093ZM39.0761 25.0368L38.378 24.883L30.7167 23.0683L27.8706 22.3301V22.3916L27.7095 23.9141L26.9577 25.7134L25.7047 27.0514L25.6689 27.7281L26.2775 28.6662L26.5818 29.8965L26.1522 30.8961L26.2238 31.8957L26.009 32.311L26.7429 33.6797L27.2083 34.2026L27.1725 35.6943L28.2823 36.6017L28.9267 35.6789L29.6248 36.1557L29.8933 35.9404L28.9267 36.0942L28.9088 36.8785L29.1057 37.8628L28.5687 37.4168L28.2644 36.817L28.1749 37.6474L28.4255 39.293L29.4279 40.3541L28.7656 41.0923L28.873 42.0304L29.589 42.9839L30.842 45.9367L31.2358 46.1212L31.1105 48.1666L31.3074 48.4127L33.9924 49.2431L34.8158 49.9967L35.1022 50.4888L35.8898 50.8733L36.749 51.0117L37.107 51.8575L37.823 52.1497L38.897 53.2416L39.8994 54.6719L39.8278 55.9944L40.3827 56.625L47.7038 57.2401L48.3482 57.2094L48.6346 56.5327L48.0798 56.179L48.0977 55.0563L48.4199 54.9948L49.0643 53.6415L49.4581 53.011L50.4605 52.5034L49.9056 51.8575L49.2791 50.4119L49.3149 50.0274V50.0121L48.8495 49.4738L47.4175 47.8283L44.643 44.4757L40.7766 39.7082L38.5927 37.1092L36.4805 34.4948L38.9149 25.6212L39.0761 25.0368Z" fill="#273340"/>
<path d="M26.8324 36.6324L26.8145 36.6478M35.9436 54.1797L36.0151 54.5181V54.5796L35.9436 54.1797ZM33.3122 52.8572L33.4375 53.0878L33.5091 53.0725L33.3122 52.8572ZM36.4447 52.811L36.4985 53.2109L36.8207 53.4108L36.4447 52.811ZM34.2789 50.6272L34.0819 50.5811L34.2431 50.6426L34.2789 50.6272ZM32.2919 50.1659L31.8086 50.4119L31.9339 50.5196L32.2919 50.1659ZM31.3611 49.8737L31.3253 49.9967L31.4864 50.0274L31.3611 49.8737ZM32.9363 50.1812L33.7239 50.5657L33.8671 50.4581L32.9363 50.1812ZM28.7477 36.7093L28.7298 36.6632V36.7247L28.7477 36.7093ZM39.0761 25.0368L38.378 24.883L30.7167 23.0683L27.8706 22.3301V22.3916L27.7095 23.9141L26.9577 25.7134L25.7047 27.0514L25.6689 27.7281L26.2775 28.6662L26.5818 29.8965L26.1522 30.8961L26.2238 31.8957L26.009 32.311L26.7429 33.6797L27.2083 34.2026L27.1725 35.6943L28.2823 36.6017L28.9267 35.6789L29.6248 36.1557L29.8933 35.9404L28.9267 36.0942L28.9088 36.8785L29.1057 37.8627L28.5687 37.4168L28.2644 36.817L28.1749 37.6474L28.4255 39.293L29.4279 40.3541L28.7656 41.0923L28.873 42.0304L29.589 42.9839L30.842 45.9367L31.2358 46.1212L31.1105 48.1666L31.3074 48.4127L33.9924 49.2431L34.8158 49.9967L35.1022 50.4888L35.8898 50.8733L36.749 51.0117L37.107 51.8575L37.823 52.1497L38.897 53.2416L39.8994 54.6719L39.8278 55.9945L40.3827 56.625L47.7039 57.2401L48.3482 57.2094L48.6346 56.5327L48.0798 56.179L48.0977 55.0563L48.4199 54.9948L49.0643 53.6415L49.4581 53.0109L50.4605 52.5034L49.9056 51.8575L49.2791 50.4119L49.3149 50.0274V50.0121L48.8495 49.4738L47.4175 47.8283L44.643 44.4757L40.7766 39.7082L38.5927 37.1092L36.4805 34.4948L38.9149 25.6212L39.0761 25.0368Z" stroke="white" stroke-width="0.391259" stroke-linejoin="round"/>
<path d="M88.2478 37.0319L88.3194 34.0177L87.4602 33.9869L83.0926 33.8485L82.663 33.8331L82.305 33.8178L76.9887 33.5256L73.4445 33.2795L69.0232 32.9104L68.5936 32.8643L68.5399 33.2641L67.5733 41.2765L67.2332 44.0755L67.09 45.2904L67.0542 45.6903L67.6091 45.7364L76.6307 46.4131L80.6045 46.6284L84.5604 46.7822L85.1332 46.7975L85.4912 46.8129L86.243 46.8283L86.601 46.8437L87.7287 46.8744H88.0151V46.5669L88.212 38.4314L88.2299 37.5241V37.2319L88.2478 37.0319Z" fill="#273340" stroke="white" stroke-width="0.391259" stroke-linejoin="round"/>
<path d="M52.322 43.4129L54.1836 33.4628L55.1323 28.48L55.2397 27.9879L54.7206 27.911L52.6979 27.588L47.6322 26.7268L47.131 26.6346L46.6298 26.5423L44.1059 26.0655L39.5772 25.1428L39.076 25.0352L38.9149 25.6196L36.4805 34.4932L38.5927 37.1076L40.7765 39.7066L44.6429 44.4741L47.4174 47.8267L48.8494 49.4722L49.3148 50.0105V49.9643L49.6012 49.4414L49.6191 46.9962L50.4067 46.4272L51.0332 46.9039L51.4449 46.9193L52.2325 43.9358V43.905L52.322 43.4129Z" fill="#273340" stroke="white" stroke-width="0.391259" stroke-linejoin="round"/>
<path d="M85.0796 47.9963L85.0975 47.5964L85.1154 47.1966L85.1333 46.7967L84.5605 46.7814L80.6046 46.6276L76.6308 46.4123L67.6092 45.7356L67.0543 45.6895L66.9827 46.2431L65.6402 58.1463L65.5149 59.269L65.0137 63.8058L65.0853 63.8212L67.5555 64.0211L67.7882 62.9446L68.2357 62.637L73.2477 63.0215H73.2835L72.836 62.2679L75.1093 62.4063L80.7836 62.6831L84.3278 62.8215L84.9364 48.3961L85.0617 48.4115L85.0796 47.9963Z" fill="#273340" stroke="white" stroke-width="0.391259" stroke-linejoin="round"/>
<path d="M27.8709 22.3309L30.717 23.0691L38.3782 24.8838L39.0763 25.0376L39.5775 25.1452L44.1062 26.0679L46.6301 26.5447L47.1313 26.637L47.2029 26.314L48.9034 20.2547L48.4201 19.2705L48.4738 18.886L50.3354 16.7945L51.2125 14.9029L50.6039 14.3339L50.586 14.0417V14.0263L50.2459 13.9648L45.216 12.9805L44.9475 13.0882L43.963 12.9498L41.9761 13.1343L40.7589 12.9959L39.4701 12.9805L39.3627 12.7037L36.6419 12.4884L35.6753 12.0424L35.55 11.7502L35.6574 10.5968L35.013 9.997L34.9593 10.0124L34.834 10.0893L33.939 9.68943L33.402 9.82784L33.044 9.67405L32.6681 10.9966L32.4175 11.3657L31.3077 13.6879L30.9855 14.9644L30.7886 14.9798L29.7504 17.1021L29.0523 18.0094L28.8017 18.1632L28.1573 19.2397L28.032 20.3778L27.6382 21.3928L27.8709 22.3155L27.8709 22.3309ZM34.4223 9.70482L34.3686 9.56641L34.3507 9.67406L34.4223 9.70482Z" fill="#273340" stroke="white" stroke-width="0.391259" stroke-linejoin="round"/>
<path d="M62.9371 29.0196L58.3189 28.4199L55.7413 28.0662L55.2401 27.9893L55.1327 28.4814L54.184 33.4641L52.3224 43.4143L52.2329 43.9064L52.6983 43.9679L57.3165 44.5985L60.5564 44.9983L66.5887 45.6442L67.0541 45.6904L67.0899 45.2905L67.2331 44.0756L67.5732 41.2766L68.5398 33.2642L68.5935 32.8644L68.2355 32.8336L63.671 32.3569L62.9729 32.28L63.4204 29.2811L63.4562 29.0812L62.9371 29.0196Z" fill="#273340" stroke="white" stroke-width="0.391259" stroke-linejoin="round"/>
<path d="M83.0386 26.9912L83.1818 24.5921L83.3608 21.3626L83.3787 20.9627L83.146 20.9473L78.5457 20.7166L75.9681 20.5321L71.0814 20.1322L64.9596 19.4863L64.709 20.9935L64.6911 21.0857L64.6195 21.5932L64.2973 23.5771L63.6887 27.5756L63.5276 28.5752L63.456 29.0828L63.4202 29.2827L62.9727 32.2816L63.6708 32.3585L68.2353 32.8352L68.5933 32.866L69.0229 32.9121L73.4442 33.2812L76.9884 33.5273L82.3047 33.8194L82.6627 33.8348L82.6806 33.435L82.7701 31.8202L82.9312 29.0059L83.0028 27.8063L83.0207 27.4065L83.0386 26.9912Z" fill="#273340" stroke="white" stroke-width="0.391259" stroke-linejoin="round"/>
<path d="M125.283 48.5201L123.35 48.7661L124.137 47.6896L123.797 47.0898L116.977 47.6589L111.213 48.0587L110.372 48.1049L110.479 48.5355L111.178 51.642L111.195 52.334L111.392 56.5171L111.41 57.2092L111.464 57.2245L111.732 57.4706L112.806 57.4398L112.914 58.7932L112.95 59.1777L113.505 59.1315L115.205 59.0239L121.953 58.4856H121.989L121.971 58.1473L122.15 58.0396L121.828 57.5167L122.508 55.0561L122.24 54.7793L123.26 53.8104L123.188 52.98L123.94 51.9034V51.8881L123.904 51.8573L124.549 51.3498L124.37 50.7346L124.871 50.058L124.764 49.4274L125.301 48.5355V48.5201L125.283 48.5201Z" fill="#273340" stroke="white" stroke-width="0.391259" stroke-linejoin="round"/>
<path d="M119.949 27.8651L118.964 27.4191L118.427 26.7886L118.248 25.8812L118.391 25.466L117.872 24.9277L116.995 25.0046L108.188 25.6352L104.662 25.8043L103.767 25.8505L103.391 25.8659L103.695 27.5729L103.445 28.388L103.839 28.8955V29.0031L103.964 29.0185L104.537 30.4641L105.092 31.2177L105.127 32.0789L105.736 32.8017L105.629 33.1093L106.184 35.0471V35.0932L109.853 35.0009L113.773 34.7087L117.622 34.2935L118.499 34.9548L118.535 34.9855L118.696 34.924L118.57 34.3242L119.233 33.9705L119.501 32.4019L119.233 32.2942L119.394 31.4945L120.199 31.3561L121.094 30.8025L121.488 29.8336L121.506 29.3415L120.79 28.7571L120.575 28.388L119.895 28.0189L119.931 27.942L119.949 27.8651Z" fill="#273340" stroke="white" stroke-width="0.391259" stroke-linejoin="round"/>
<path d="M110.246 46.0894L109.799 39.5841L108.993 39.1843L108.922 38.8767L108.277 38.3846L108.904 37.7233L108.653 37.3388L108.188 37.3542L107.758 37.0928L107.579 36.9697L106.971 37.0005L100.366 37.2158L97.3406 37.2773H91.3262L88.9097 37.2465L88.2295 37.2312V37.5234L88.2115 38.4307L88.0146 46.5661V46.8737L88.7843 46.8891L92.9372 46.9352L102.657 46.8122L109.584 46.5354L110.264 46.4893L110.246 46.0894Z" fill="#273340" stroke="white" stroke-width="0.391259" stroke-linejoin="round"/>
<path d="M118.499 34.9552L117.622 34.2939L113.773 34.7092L109.853 35.0014L106.183 35.0937L106.166 35.1859L106.613 35.9241L107.025 36.1702L107.508 36.9084L107.58 36.9699L107.759 37.0929L108.188 37.3543L108.654 37.339L108.904 37.7234L108.278 38.3847L108.922 38.8768L108.994 39.1844L109.799 39.5843L110.247 46.0895L110.265 46.4894L110.3 46.8892L110.318 47.2891L110.354 47.7043L110.372 48.1042L111.213 48.058L116.977 47.6582L123.797 47.0892L124.137 47.6889L123.35 48.7655L125.283 48.5194H125.301V48.3964L125.336 47.6889L125.694 47.3045L125.587 46.8739L125.569 46.8585L125.551 46.8431L125.623 46.6432L125.73 46.6739L125.784 46.797L125.766 46.8431V46.8585V46.9815L125.838 46.9969L125.981 46.8431V46.8277L125.999 46.7816L126.464 46.5355L126.536 46.5048L126.697 45.2437L126.661 45.1822L126.607 45.1668L125.336 44.2748L125.533 43.9519L125.175 43.0753L124.531 42.6447L123.314 42.1833L122.544 41.645L122.634 40.5378L122.866 39.5074L121.577 39.5689L121.184 39.2152L121.005 38.5077L118.964 37.0314L118.391 35.6627L118.534 34.986L118.499 34.9552Z" fill="#273340" stroke="white" stroke-width="0.391259" stroke-linejoin="round"/>
<path d="M103.498 28.9739L102.943 28.4972L100.992 28.0051L100.366 27.9897L99.417 28.2204L98.2893 27.6052L94.763 27.636L89.6257 27.5898L83.5576 27.4207L83.0206 27.4053L83.0027 27.8051L82.9311 29.0047L82.77 31.819L82.6805 33.4338L82.6626 33.8336L83.0922 33.849L87.4598 33.9874L88.319 34.0182L88.2474 37.0325L88.2295 37.2324L88.9097 37.2478L91.3262 37.2785H97.3406L100.366 37.217L106.971 37.0017L107.579 36.971L107.508 36.9094L107.025 36.1712L106.613 35.9252L106.165 35.187L106.183 35.0947V35.0486L105.628 33.1109L105.736 32.8033L105.127 32.0805L105.091 31.2192L104.536 30.4657L103.964 29.0201L103.838 29.0047L103.498 28.9739Z" fill="#273340" stroke="white" stroke-width="0.391259" stroke-linejoin="round"/>
<path d="M110.354 47.7052L110.318 47.2899L110.3 46.8901L110.264 46.4902L109.584 46.5364L102.657 46.8132L92.9371 46.9362L88.7843 46.8901L88.0146 46.8747H87.7282L86.6005 46.8439L86.2425 46.8286L85.4907 46.8132L85.1327 46.7978L85.1148 47.1976L85.0968 47.5975L85.0789 47.9973L85.061 48.4126H85.1684L89.5002 48.5048L94.0826 48.551L94.1363 53.8106L94.4585 54.7333L95.1745 55.3177L95.9442 55.3485L96.1053 55.0716L97.1614 55.9021L98.5397 56.0251L98.7903 56.2712L99.2915 56.0713L100.545 56.5788V56.871L101.01 56.8556L101.493 56.5019L102.388 56.994L103.23 57.2554L103.802 56.5788L105.628 57.3169L106.308 56.8402L106.863 56.6556L107.311 56.7479L108.993 56.3327L109.888 56.6556L110.694 57.1016L111.392 57.2093H111.41L111.392 56.5172L111.195 52.3342L111.177 51.6421L110.479 48.5356L110.372 48.105L110.354 47.7052Z" fill="#273340" stroke="white" stroke-width="0.391259" stroke-linejoin="round"/>
<path d="M102.496 18.0229L99.4706 18.0998L92.1853 18.146L84.2914 17.9614L83.5933 17.9307L83.5754 18.2844L83.5038 19.6839L83.4501 20.745L83.4322 20.9603H83.3785L83.3606 21.3602L83.1816 24.5897L83.0384 26.9888L83.0205 27.4041L83.5575 27.4194L89.6256 27.5886L94.7629 27.6347L98.2892 27.604L99.4169 28.2191L100.366 27.9885L100.992 28.0038L102.943 28.496L103.498 28.9727L103.838 29.0035V28.8958L103.444 28.3883L103.695 27.5732L103.391 25.8662L103.767 25.8508L103.731 25.1434L102.836 19.73L102.37 19.0533L103.086 18.0383L103.104 17.9922L102.496 18.0229Z" fill="#273340" stroke="white" stroke-width="0.391259" stroke-linejoin="round"/>
<path d="M125.014 70.8971L124.781 70.9432L124.674 71.0355L125.014 70.8971ZM125.766 70.8971L125.64 70.851L125.605 70.8971H125.766ZM126.195 70.7741H126.07L125.998 70.851L126.195 70.7741ZM125.98 70.6664L125.945 70.6203L125.927 70.6664H125.98ZM127.412 69.8513L127.359 69.8821H127.448L127.412 69.8513ZM129.918 68.944L130.026 68.8209L129.901 68.9594L129.918 68.944ZM130.276 68.5441L130.241 68.5595V68.5749L130.276 68.5441ZM121.076 69.8975L121.344 69.6053L120.61 69.4361L120.288 69.6668L121.076 69.8975ZM128.504 68.5595L128.433 68.498L128.415 68.5287L128.504 68.5595ZM128.701 68.2827L128.522 68.2365L128.576 68.3903L128.701 68.2827ZM130.169 68.0212V67.9751V67.9905V68.0212ZM130.527 67.8213L130.509 67.8059L130.527 67.8367V67.8213ZM130.384 67.7906L130.348 67.7752L130.33 67.8213L130.384 67.7906ZM129.131 67.7444L129.292 67.6983V67.6521L129.131 67.7444ZM129.22 67.6675L129.31 67.5906L129.292 67.5752L129.22 67.6675ZM128.594 67.0985L128.558 67.1293H128.576L128.594 67.0985ZM121.989 58.4863H121.953L115.205 59.0246L113.504 59.1322L112.949 59.1784L112.967 59.5475L113.325 62.5156L113.916 63.223L113.934 63.6383L114.507 64.4995L114.972 65.7605L114.811 66.468L114.686 68.2212L114.417 68.7902H114.453L114.507 69.19L114.202 69.5591L116.422 69.3438L118.158 69.7591L119.393 69.8975L120.02 69.513L119.68 69.1285L120.825 68.8209L120.789 69.1593L121.38 69.0362L121.863 69.6822L122.275 69.5591L123.349 70.1897L122.687 70.3896L124.208 70.7741H124.781L125.121 70.4203L125.855 70.082L126.374 70.7279L126.732 70.1435L126.625 69.2208L127.591 69.5437L127.699 69.8206L128.844 69.9436L129.417 70.3435L129.346 70.6664L130.151 70.0205L129.847 69.6822L128.504 69.39L128.003 69.1439L127.985 68.6825L128.54 68.744L128.97 67.9905L128.415 67.3292L128.111 67.9597L127.412 67.8521L127.896 67.1754L127.574 67.0985L126.786 67.5753L125.658 67.6368L125.336 67.4215L125.855 66.6371L126.464 66.6218L127.502 66.914L128.254 66.9755L127.842 66.5295L127.054 65.2069L127.269 64.4687L121.094 65.0531L121.326 64.8532L121.076 64.2995L121.452 63.8228L121.667 62.6232L123.027 60.624L122.365 59.9319L122.4 59.4244L121.989 58.594L121.989 58.4863Z" fill="#273340" stroke="white" stroke-width="0.391259" stroke-linejoin="round"/>
<path d="M103.802 81.6159L102.943 78.8323V79.3552L103.802 81.6159ZM103.606 76.7254L102.997 77.7096L102.925 78.0326L103.606 76.7254ZM104.089 76.0026L104.662 75.3566L104.25 75.572L104.089 76.0026ZM106.112 74.4339L104.769 75.0337L105.145 74.9722L106.112 74.4339ZM106.291 74.2186L106.666 73.9572L106.523 73.9879L106.291 74.2186ZM85.0612 48.4128L84.9359 48.3975L84.3273 62.8229L80.7831 62.6844L75.1087 62.4076L72.8354 62.2692L73.2829 63.0228L73.3009 63.0382L75.2341 64.6991L76.3439 65.8217L77.8117 66.7599L78.8499 68.39L79.2437 70.0971L80.085 70.5738L80.7473 71.2044L81.696 71.4966L83.0743 72.2501L83.7008 72.45L84.56 71.7119L84.8285 70.9275L85.276 70.174L86.6722 69.6972L87.2092 69.9279L88.7665 70.0356L90.1806 70.7891L91.1472 70.9429L90.8787 71.3735L91.4336 71.6811L91.9527 72.2194L92.0601 72.7884L92.4002 73.1728L93.1878 74.803L93.9754 75.372L94.584 76.2332L95.3537 76.9099L95.6938 77.0022L95.9802 78.7554L96.8215 79.1552L96.8573 79.7089L97.0721 79.6627L98.5399 81.2006L99.2738 81.339L100.205 81.8158H101.637L102.675 82.3079L103.91 82.0772L103.355 81.6312L102.854 80.3394L102.657 79.2167L102.37 78.8477L102.496 78.0941L102.12 78.0633L101.619 77.3559L102.191 77.8788L102.854 77.6789L103.212 76.8638L102.496 76.0333L103.57 76.141L104.071 75.4797L103.999 75.249L104.447 74.7415L104.339 75.1875L104.841 74.8491L104.644 74.2494L105.288 74.5416L106.112 74.1417L105.306 73.4189L105.807 73.5881L106.738 73.6342L107.955 73.4035L109.316 72.6192L110.139 72.0348L110.264 71.6042L110.766 71.1582L110.497 70.42L110.551 69.9587L111.446 69.6203L111.374 70.4354H111.911L111.32 70.866L113.701 69.7895L114.095 69.7741L114.346 68.7899H114.417L114.686 68.2208L114.811 66.4676L114.972 65.7602L114.507 64.4992L113.934 63.6379L113.916 63.2227L113.325 62.5153L112.967 59.5472L112.949 59.1781L112.914 58.7936L112.806 57.4402L111.732 57.471L111.464 57.2249L111.41 57.2096H111.392L110.694 57.1019L109.888 56.6559L108.993 56.333L107.311 56.7482L106.863 56.6559L106.308 56.8405L105.628 57.3172L103.802 56.579L103.23 57.2557L102.388 56.9943L101.493 56.5021L101.01 56.8558L100.545 56.8712V56.579L99.2916 56.0715L98.7904 56.2715L98.5399 56.0254L97.1615 55.9024L96.1054 55.0719L95.9443 55.3487L95.1746 55.318L94.4586 54.7336L94.1364 53.8108L94.0827 48.5513L89.5003 48.5051L85.1685 48.4128L85.0612 48.4128Z" fill="#273340" stroke="white" stroke-width="0.391259" stroke-linejoin="round"/>
<path d="M170.749 19.2529L168.171 20.0988L168.135 20.0219L166.685 20.391L166.363 20.4679L166.399 20.6216L167.079 22.8823L167.294 23.113L166.829 23.6052L167.151 23.8666L168.189 23.0054L168.744 22.3441L168.851 22.5286L171.465 21.529L171.518 21.4829L171.501 21.1138L171.393 20.7908L170.838 19.4529L170.767 19.2837L170.749 19.2529Z" fill="#273340" stroke="white" stroke-width="0.391259" stroke-linejoin="round"/>
<path d="M168.332 8.58008L168.1 8.82614L167.831 8.78L167.688 9.79501V9.81039L168.118 11.1945L168.082 11.4713L167.312 12.3479L167.509 13.1476V14.1472L167.366 15.07L168.171 17.5921L168.905 17.3922L171.161 16.7463L172.181 15.7928V15.5467L172.235 15.1469L172.109 15.193L172.091 15.1007L170.964 13.9166L170.928 13.8089L168.332 8.58008Z" fill="#273340" stroke="white" stroke-width="0.391259" stroke-linejoin="round"/>
<path d="M172.503 20.6387L172.485 20.3157L172.431 20.4388L172.503 20.6387ZM172.861 20.3926L172.628 20.0082L172.61 20.408L172.861 20.3926ZM172.754 19.9159L172.879 20.1927L173.04 20.4388L173.147 20.2542L172.986 19.9928L172.933 19.8082H172.754V19.9159ZM170.767 19.2854L170.838 19.4545L171.393 20.7925L171.501 21.1154L171.518 21.4845L171.554 21.4384L172.413 20.854L172.252 19.8082L172.61 19.7467L171.823 18.9316L170.999 19.2085L170.767 19.2854Z" fill="#273340" stroke="white" stroke-width="0.391259" stroke-linejoin="round"/>
<path d="M168.171 17.5942L167.366 15.0721L167.509 14.1493V13.1497L167.312 12.35L168.082 11.4734L168.117 11.1966L167.688 9.8125L167.455 9.88939L166.471 10.197L165.504 10.5199L163.284 11.212L163.159 11.2427L163.965 12.8575L164.233 14.38L165.182 15.6565L166.077 18.1786L166.113 18.1632L166.256 18.1171L166.668 18.0094L167.026 17.9018L168.046 17.6403L168.171 17.5942Z" fill="#273340" stroke="white" stroke-width="0.391259" stroke-linejoin="round"/>
<path d="M130.42 51.1801L130.492 51.3031L130.742 51.4415L130.85 57.7468L130.886 61.2071L131.799 65.9438L131.87 65.9284L132.676 66.0668L132.89 64.6981L133.248 65.467L133.857 65.9438L135.021 65.3594L134.895 65.2671L134.931 65.2825L134.126 63.6985L141.858 62.6219L142.377 62.545V62.5297L141.894 61.7453L141.858 60.6227L141.465 60.0075L141.661 58.808L141.984 58.5004L140.659 56.4704L138.26 50.1958L138.243 50.165L137.706 50.2419L134.842 50.6418L133.41 50.7956L130.402 51.1493L130.42 51.1801Z" fill="#273340" stroke="white" stroke-width="0.391259" stroke-linejoin="round"/>
<path d="M155.57 81.3534H155.534L155.552 81.3688L155.57 81.3534ZM155.409 81.338V81.3534H155.426L155.409 81.338ZM152.813 81.5687H152.795V81.5841L152.813 81.5687ZM157.897 80.5999H157.879L157.897 80.6306V80.5999ZM158.38 80.4922V80.4614L158.344 80.5076L158.38 80.4922ZM158.201 80.4614L158.129 80.3999L158.111 80.4153L158.201 80.4614ZM158.147 80.5845L157.932 80.3538L158.058 80.5537L158.147 80.5845ZM159.848 79.6771V79.7386L159.884 79.7079L159.848 79.6771ZM160.098 79.5233L160.152 79.4464L160.081 79.508L160.098 79.5233ZM160.152 79.3695H160.134V79.3849L160.152 79.3695ZM159.991 79.0927L159.973 79.0773V79.1081L159.991 79.0927ZM160.116 78.7236L160.081 78.739L160.134 78.7544L160.116 78.7236ZM160.188 78.7236L160.152 78.6929L160.17 78.739L160.188 78.7236ZM160.063 78.6929L160.045 78.6775V78.7082L160.063 78.6929ZM160.725 78.5852V78.5698L160.689 78.6313L160.725 78.5852ZM159.973 78.6467H159.937L159.973 78.6621V78.6467ZM160.349 78.4622H160.295L160.277 78.4776L160.349 78.4622ZM158.989 78.4468V78.416L158.971 78.4468H158.989ZM159.15 78.4007H159.096L159.15 78.4929V78.4007ZM158.72 78.416V78.3238L158.631 78.3392L158.72 78.416ZM158.469 78.2623L158.559 78.3392V78.3084L158.469 78.2623ZM161.101 78.3545L160.779 78.4776L160.886 78.493L161.101 78.3545ZM158.595 78.2161H158.487V78.2469L158.595 78.2161ZM161.423 77.4472L161.441 77.3703L161.459 77.1704L161.423 77.4472ZM161.441 76.586L161.369 76.4322L161.334 76.4937L161.441 76.586ZM157.306 76.9704L157.27 77.0166L157.36 77.0319L157.306 76.9704ZM156.966 76.832L156.805 76.8782L156.93 76.8935L156.966 76.832ZM156.608 76.8628V76.8166L156.59 76.832L156.608 76.8628ZM156.232 76.8474L156.125 76.9089L156.268 76.9704L156.232 76.8474ZM156.733 76.8628L156.715 76.8166L156.626 76.8013L156.733 76.8628ZM154.388 75.3556L154.281 75.4018L154.496 75.4633L154.388 75.3556ZM153.959 74.8635L153.815 74.679L153.869 74.8174L153.959 74.8635ZM154.514 75.1711L154.263 74.679L154.084 74.6328L154.514 75.1711ZM153.798 74.5559L153.744 74.4329L153.708 74.356L153.798 74.5559ZM152.312 72.8489L151.99 72.649L152.115 72.7566L152.312 72.8489ZM160.367 71.8185L159.06 69.9423H158.989L160.367 71.8185ZM151.327 68.8196L151.274 68.8042L151.327 68.835V68.8196ZM151.22 68.712L151.202 68.7274L151.22 68.7427V68.712ZM151.095 68.5582V68.5428L151.077 68.5582H151.095ZM151.166 68.4967L151.22 68.5274V68.4967H151.166ZM151.274 68.4352L151.202 68.4505H151.22L151.274 68.4352ZM151.148 68.4198L151.095 68.3736L151.113 68.389L151.148 68.4198ZM151.023 68.2506H150.987L151.041 68.266L151.023 68.2506ZM151.148 68.0661H151.077L151.059 68.0814L151.148 68.0661ZM151.22 68.0968L151.13 68.0199L151.166 68.0353L151.22 68.0968ZM150.54 67.4355L150.504 67.4201V67.4355H150.54ZM149.77 67.4355L149.716 67.374L149.734 67.4509L149.77 67.4355ZM143.254 66.928L143.791 66.5743L143.201 66.9126L143.254 66.928ZM144.328 66.1898L144.382 66.1437L144.167 66.2206L144.328 66.1898ZM137.526 65.1594L135.575 65.6977L136.649 65.4363L137.526 65.1594ZM142.377 62.545L141.858 62.6219L134.125 63.6984L134.931 65.2825L134.985 65.2979L134.788 65.9284L135.361 65.7131L135.987 65.2363L137.061 65.2056L138.296 64.8211L139.137 64.9288L138.941 65.1902L140.48 65.6362L141.805 66.1898L142.109 66.805L143.093 66.6204L145.42 64.9903L146.28 65.021L149.788 67.2971L150.504 67.1741L151.256 68.0353L151.399 69.404L151.166 70.2652L151.274 70.6958L151.9 71.7724L151.614 70.9265L152.419 70.9111L152.491 71.5263L152.061 72.4798L153.547 74.233L154.102 74.2484L153.637 73.7101L154.209 73.7716L154.549 73.5871L154.406 74.5713L155.176 75.0942L155.695 76.2938L156.393 76.6629L157.288 76.8628L158.523 78.2161L159.168 78.5083L158.308 78.5545L158.702 78.9389L160.116 78.5391L160.814 78.2007L161.459 76.263L161.137 73.2487L161.065 72.9412L159.347 70.4805L157.879 68.6966L157.055 67.2356L157.754 67.7431L157.897 67.6508L158.201 68.9273L158.989 69.8961L158.219 68.6043L158.255 67.9892L155.946 65.5747L155.391 64.8211L154.657 63.5447L154.156 62.4681L153.762 62.0837L153.672 61.5915L153.654 61.5762L152.419 61.5146L151.936 61.8376L151.667 63.0218L151.417 62.4681L142.968 63.3755L142.359 62.5604L142.377 62.545Z" fill="#273340"/>
<path d="M155.444 81.3227V81.3073M153.01 81.5533V81.5687M152.974 81.5687V81.5533M159.83 79.3234L159.812 79.308M159.508 79.0773L159.49 79.0619M160.492 78.3853H160.474M155.57 81.3534H155.534L155.552 81.3688L155.57 81.3534ZM155.409 81.338V81.3534H155.426L155.409 81.338ZM152.813 81.5687H152.795V81.5841L152.813 81.5687ZM157.897 80.5999H157.879L157.897 80.6306V80.5999ZM158.38 80.4922V80.4614L158.344 80.5076L158.38 80.4922ZM158.201 80.4614L158.129 80.3999L158.111 80.4153L158.201 80.4614ZM158.147 80.5845L157.932 80.3538L158.058 80.5537L158.147 80.5845ZM159.848 79.6771V79.7386L159.884 79.7079L159.848 79.6771ZM160.098 79.5233L160.152 79.4464L160.081 79.508L160.098 79.5233ZM160.152 79.3695H160.134V79.3849L160.152 79.3695ZM159.991 79.0927L159.973 79.0773V79.1081L159.991 79.0927ZM160.116 78.7236L160.081 78.739L160.134 78.7544L160.116 78.7236ZM160.188 78.7236L160.152 78.6929L160.17 78.739L160.188 78.7236ZM160.063 78.6929L160.045 78.6775V78.7082L160.063 78.6929ZM160.725 78.5852V78.5698L160.689 78.6313L160.725 78.5852ZM159.973 78.6467H159.937L159.973 78.6621V78.6467ZM160.349 78.4622H160.295L160.277 78.4776L160.349 78.4622ZM158.989 78.4468V78.416L158.971 78.4468H158.989ZM159.15 78.4007H159.096L159.15 78.4929V78.4007ZM158.72 78.4161V78.3238L158.631 78.3392L158.72 78.4161ZM158.469 78.2623L158.559 78.3392V78.3084L158.469 78.2623ZM161.101 78.3545L160.779 78.4776L160.886 78.493L161.101 78.3545ZM158.595 78.2161H158.487V78.2469L158.595 78.2161ZM161.423 77.4472L161.441 77.3703L161.459 77.1704L161.423 77.4472ZM161.441 76.586L161.369 76.4322L161.334 76.4937L161.441 76.586ZM157.306 76.9704L157.27 77.0166L157.36 77.032L157.306 76.9704ZM156.966 76.832L156.805 76.8782L156.93 76.8935L156.966 76.832ZM156.608 76.8628V76.8166L156.59 76.832L156.608 76.8628ZM156.232 76.8474L156.125 76.9089L156.268 76.9704L156.232 76.8474ZM156.733 76.8628L156.715 76.8166L156.626 76.8013L156.733 76.8628ZM154.388 75.3556L154.281 75.4018L154.496 75.4633L154.388 75.3556ZM153.959 74.8635L153.815 74.679L153.869 74.8174L153.959 74.8635ZM154.514 75.1711L154.263 74.679L154.084 74.6328L154.514 75.1711ZM153.798 74.5559L153.744 74.4329L153.708 74.356L153.798 74.5559ZM152.312 72.8489L151.99 72.649L152.115 72.7566L152.312 72.8489ZM160.367 71.8185L159.06 69.9423H158.989L160.367 71.8185ZM151.327 68.8196L151.274 68.8042L151.327 68.835V68.8196ZM151.22 68.712L151.202 68.7274L151.22 68.7427V68.712ZM151.095 68.5582V68.5428L151.077 68.5582H151.095ZM151.166 68.4967L151.22 68.5274V68.4967H151.166ZM151.274 68.4352L151.202 68.4505H151.22L151.274 68.4352ZM151.148 68.4198L151.095 68.3736L151.113 68.389L151.148 68.4198ZM151.023 68.2506H150.987L151.041 68.266L151.023 68.2506ZM151.148 68.0661H151.077L151.059 68.0814L151.148 68.0661ZM151.22 68.0968L151.13 68.0199L151.166 68.0353L151.22 68.0968ZM150.54 67.4355L150.504 67.4201V67.4355H150.54ZM149.77 67.4355L149.716 67.374L149.734 67.4509L149.77 67.4355ZM143.254 66.928L143.791 66.5743L143.201 66.9126L143.254 66.928ZM144.328 66.1898L144.382 66.1437L144.167 66.2206L144.328 66.1898ZM137.526 65.1594L135.575 65.6977L136.649 65.4363L137.526 65.1594ZM142.377 62.545L141.858 62.6219L134.125 63.6984L134.931 65.2825L134.985 65.2979L134.788 65.9284L135.361 65.7131L135.987 65.2363L137.061 65.2056L138.296 64.8211L139.137 64.9288L138.941 65.1902L140.48 65.6362L141.805 66.1898L142.109 66.805L143.093 66.6204L145.42 64.9903L146.28 65.021L149.788 67.2971L150.504 67.1741L151.256 68.0353L151.399 69.404L151.166 70.2652L151.274 70.6958L151.9 71.7724L151.614 70.9265L152.419 70.9111L152.491 71.5263L152.061 72.4798L153.547 74.233L154.102 74.2484L153.637 73.7101L154.209 73.7716L154.549 73.5871L154.406 74.5713L155.176 75.0942L155.695 76.2938L156.393 76.6629L157.288 76.8628L158.523 78.2161L159.168 78.5083L158.308 78.5545L158.702 78.9389L160.116 78.5391L160.814 78.2007L161.459 76.263L161.137 73.2487L161.065 72.9412L159.347 70.4805L157.879 68.6966L157.055 67.2356L157.754 67.7431L157.897 67.6508L158.201 68.9273L158.989 69.8961L158.219 68.6043L158.255 67.9892L155.946 65.5747L155.391 64.8211L154.657 63.5447L154.156 62.4681L153.762 62.0837L153.672 61.5915L153.654 61.5762L152.419 61.5146L151.936 61.8376L151.667 63.0218L151.417 62.4681L142.968 63.3755L142.359 62.5604L142.377 62.545Z" stroke="white" stroke-width="0.391259" stroke-linejoin="round"/>
<path d="M153.94 59.2994L153.923 58.8381L153.797 59.2379L153.94 59.2994ZM154.137 58.592L154.066 58.2383L154.012 58.4536L154.137 58.592ZM145.76 48.9033L145.527 48.9495L144.847 49.0725L142.341 49.5185L142.109 49.5646L141.858 49.5954L140.462 49.8261L140.086 49.8876L138.564 50.1336L138.242 50.1644L138.26 50.1951L140.659 56.4697L141.983 58.4997L141.661 58.8073L141.464 60.0069L141.858 60.622L141.894 61.7447L142.377 62.529V62.5444L142.359 62.5598L142.968 63.3749L151.417 62.4675L151.667 63.0211L151.936 61.837L152.419 61.514L153.654 61.5755L153.547 59.9146L153.779 59.5609L153.654 58.8996L153.905 58.2691L154.281 57.9154L154.012 57.7001L154.639 57.0388H154.621L153.547 56.1775L152.079 54.3782L151.273 54.0553L147.819 51.5639L146.977 50.6411L145.348 50.0567L145.259 49.7492L145.76 48.9033Z" fill="#273340" stroke="white" stroke-width="0.391259" stroke-linejoin="round"/>
<path d="M130.134 66.698L130.044 66.7134V66.7287L130.134 66.698ZM131.798 66.5134H131.548L131.78 66.5288L131.798 66.5134ZM129.722 66.6672L129.65 66.7287L129.668 66.7441L129.722 66.6672ZM131.404 66.5442H130.724L131.369 66.5596L131.404 66.5442ZM123.94 51.8881V51.9035L123.188 52.98L123.26 53.8105L122.24 54.7793L122.508 55.0562L121.828 57.5168L122.15 58.0397L121.971 58.1473L121.989 58.4856V58.5933L122.401 59.4238L122.365 59.9313L123.027 60.6233L121.667 62.6226L121.452 63.8221L121.076 64.2989L121.327 64.8525L121.094 65.0524L127.27 64.468L127.055 65.2062L127.842 66.5288L128.254 66.9748V66.9594L128.916 66.3135L130.313 66.0521L131.601 66.1751L131.798 65.9598V65.9444L130.885 61.2077L130.85 57.7474L130.742 51.4421L130.492 51.3037L130.42 51.1807H130.384L129.489 51.2883L127.914 51.4729L124.334 51.8573L123.94 51.8881Z" fill="#273340" stroke="white" stroke-width="0.391259" stroke-linejoin="round"/>
<path d="M145.76 48.9038L145.259 49.7497L145.348 50.0573L146.977 50.6417L147.818 51.5644L151.273 54.0558L152.079 54.3787L153.546 56.1781L154.62 57.0393L154.8 56.3318L154.513 55.6552L155.283 56.1473L155.712 55.8551L154.978 55.3322L155.874 55.2861L157.27 54.2711L157.109 54.0096L157.968 53.4406L157.878 53.1638L158.505 52.8255L158.541 52.0411L159.525 50.4725L160.187 49.7497L160.259 49.7189L156.267 47.5505L154.782 47.7966L152.759 47.735L151.756 47.2891L145.814 48.9038H145.76Z" fill="#273340" stroke="white" stroke-width="0.391259" stroke-linejoin="round"/>
<path d="M119.931 27.9418L119.895 28.0187L120.575 28.3878L120.79 28.7569L121.506 29.3413L121.488 29.8334L121.095 30.8023L120.2 31.3559L119.394 31.4943L119.233 32.294L119.501 32.4017L119.233 33.9703L118.571 34.324L118.696 34.9238L118.535 34.9853L118.392 35.662L118.964 37.0307L121.005 38.5071L121.184 39.2145L121.578 39.5682L122.867 39.5067L122.634 40.5371L122.544 41.6444L123.314 42.1826L124.531 42.644L125.176 43.0746L125.534 43.9512L125.337 44.2742L126.608 45.1661L126.661 45.1815L126.554 45.0892L126.912 44.3664L128.29 44.6894L128.63 44.3511L128.362 43.6744L129.49 43.1054L129.185 42.7363L129.454 42.2134V42.1673L129.382 42.1519L129.4 40.7832L129.794 40.5371L130.474 39.1684L130.331 38.5686L129.883 37.8458L130.134 37.0307L128.881 29.4489L128.702 29.2798L128.237 28.3724L127.861 28.0341L127.7 27.1421V27.1113L125.283 27.4035L123.833 27.5573L119.931 27.9418Z" fill="#273340" stroke="white" stroke-width="0.391259" stroke-linejoin="round"/>
<path d="M136.327 28.2656L133.588 28.6809L132.962 28.7885L130.742 29.0961L130.277 29.4191L129.578 29.6959L129.31 29.6805L128.988 29.5421L128.88 29.4498L130.133 37.0316L129.883 37.8467L130.33 38.5695L130.473 39.1693L129.793 40.538L129.399 40.784L129.382 42.1528L129.453 42.1681L129.525 42.1528L129.793 41.7222H130.456L131.261 41.4915L132.263 41.8144L132.371 41.4607L132.944 41.0916L133.803 41.1993L134.268 40.4149L135.539 40.5072L135.521 40.0612L136.649 38.7848L136.47 38.2004L137.258 38.185L138.224 37.5237L137.991 36.7701L138.027 36.7394L137.991 36.4779L136.917 31.0338L136.434 28.7116L136.38 28.4655L136.327 28.2656Z" fill="#273340" stroke="white" stroke-width="0.391259" stroke-linejoin="round"/>
<path d="M125.784 46.7985L125.73 46.6755L125.623 46.6447L125.551 46.8446L125.569 46.86L125.766 46.8446L125.784 46.7985ZM138.028 36.7407L137.992 36.7715L138.224 37.525L137.258 38.1863L136.47 38.2017L136.649 38.7861L135.522 40.0625L135.539 40.5085L134.269 40.4163L133.803 41.2006L132.944 41.0929L132.371 41.462L132.264 41.8157L131.261 41.4928L130.456 41.7235H129.794L129.525 42.1541L129.453 42.1695V42.2156L129.185 42.7385L129.489 43.1076L128.362 43.6766L128.63 44.3533L128.29 44.6916L126.912 44.3686L126.554 45.0914L126.661 45.1837L126.697 45.2452L126.536 46.5063L126.464 46.5371L125.999 46.7831L125.981 46.8293L126.5 46.7677L130.116 46.3525L129.937 45.7374L130.545 45.722L137.831 44.8915L142.95 44.1533L143.022 44.1072L143.147 43.9842L144.489 43.369L145.528 42.2002L145.671 41.8004L146.351 41.339L147.21 40.4009L147.336 40.2471L147.282 40.2317H146.834L146.262 39.9549L145.241 38.8937L144.883 37.8172V37.7865L144.847 37.7557L144.096 37.3866L143.756 36.8945L143.075 37.4635L142.646 37.5558L142.109 37.3712L141.643 37.6788L140.677 37.3097L140.426 37.402L139.513 36.7253L139.048 36.5254L138.171 36.6177L138.028 36.7407Z" fill="#273340" stroke="white" stroke-width="0.391259" stroke-linejoin="round"/>
<path d="M162.121 49.1806L161.924 49.3498L161.96 49.3806L162.121 49.1806ZM162.264 48.2887L162.175 48.4117L162.21 48.5347L162.264 48.2887ZM163.338 46.8584L163.07 47.0122L162.926 47.1968L163.338 46.8584ZM165.647 45.8895L165.54 45.828L165.307 45.8126L165.647 45.8895ZM165.164 45.7973H165.003L164.734 45.9203L165.164 45.7973ZM165.719 45.9664L166.238 44.8592L165.88 45.3205L165.719 45.9664ZM166.489 44.5055L166.721 44.2133H166.596L166.489 44.5055ZM167.992 43.3059L167.598 41.5988L167.938 42.4908L167.992 43.3059ZM165.808 39.415L165.773 39.4304L165.719 39.4458H165.737L166.721 40.876L167.491 41.5373L165.808 39.415ZM165.486 39.5073L165.343 39.5381L165.379 39.5535H165.683L165.647 39.4612L165.594 39.4766H165.54V39.5073L165.504 39.5227L165.486 39.5073ZM148.929 43.0137L148.839 43.2444L148.857 43.9057L148.66 43.8903L148.195 44.7054L147.676 44.7515L146.709 45.5666L146.279 45.4282L145.725 46.1356L144.257 47.2736L143.541 47.4274L142.789 48.0272L142.753 48.4271L142.091 48.7346L142.109 49.4113V49.5651L142.341 49.519L144.847 49.073L145.528 48.9499L145.76 48.9038H145.814L151.757 47.289L152.759 47.735L154.782 47.7965L156.268 47.5505L160.259 49.7189L160.331 49.6727L162.175 49.0268L162.193 48.181L162.855 47.1506L163.571 46.5662L165.057 45.7204L165.253 45.4128L165.647 45.5666L165.826 44.5516L165.611 44.9053L164.86 45.1206L164.144 45.136L165.021 44.5823L164.752 44.3363L165.057 43.7826L163.374 43.552L163.302 43.4751L164.734 43.2444L165.2 43.4443L165.79 43.3982L166.274 43.0906L166.632 42.4908L166.954 42.4139L166.9 41.5681L166.489 41.2297L166.077 41.5527L166.166 42.3678L165.862 41.3682L165.629 41.322L163.857 41.9526L164.645 41.2913L164.681 41.0298L165.504 40.8607L165.737 40.3378L166.292 40.6146L165.701 39.861L165.289 39.5534L158.129 41.3066L153.565 42.3063L148.947 43.0445L148.929 43.0137Z" fill="#273340" stroke="white" stroke-width="0.391259" stroke-linejoin="round"/>
<path d="M148.839 29.2805L148.392 27.6196L148.302 27.2813L147.801 25.3896L147.157 25.7434L145.778 26.6507L144.883 27.5888L144.185 27.6811L142.896 28.3116L142.18 27.9425L140.015 27.7272L138.869 27.9733L137.741 28.204L136.56 28.4193L136.381 28.4654L136.435 28.7115L136.918 31.0337L137.992 36.4778L138.028 36.7393L138.171 36.6162L139.048 36.524L139.513 36.7239L140.426 37.4006L140.677 37.3083L141.643 37.6774L142.109 37.3698L142.646 37.5543L143.075 37.4621L143.756 36.8931L144.096 37.3852L144.848 37.7543L144.883 37.785L145.653 37.4621L145.922 36.9546L145.707 36.4317L146.315 35.632L146.763 35.5705L146.709 34.8938L147.443 34.0326L147.568 34.1556L148.231 33.725L148.803 32.9868L148.893 29.6188L148.929 29.6035L148.839 29.2805Z" fill="#273340" stroke="white" stroke-width="0.391259" stroke-linejoin="round"/>
<path d="M142.95 44.1527L137.83 44.8909L130.545 45.7213L129.937 45.7367L130.116 46.3518L126.5 46.7671L125.981 46.8286V46.844L125.837 46.9978L125.766 46.9824V46.8594V46.844L125.569 46.8594L125.587 46.8747L125.694 47.3053L125.336 47.6898L125.3 48.3972V48.5203V48.5357L124.764 49.4276L124.871 50.0582L124.37 50.7348L124.549 51.35L123.904 51.8575L123.94 51.8883L124.334 51.8575L127.914 51.473L129.489 51.2885L130.384 51.1808H130.42L130.402 51.1501L133.409 50.7964L134.841 50.6426L137.705 50.2427L138.242 50.1658L138.564 50.1351L140.086 49.889L140.462 49.8275L141.858 49.5968L142.109 49.566V49.4123L142.091 48.7356L142.753 48.428L142.789 48.0282L143.541 47.4284L144.257 47.2746L145.724 46.1366L146.279 45.4291L146.709 45.5675L147.675 44.7525L148.195 44.7063L148.66 43.8912L148.857 43.9066L148.839 43.2453L148.928 43.0146L148.642 43.0608L147.622 43.3068L146.405 43.5222L143.344 44.0604L143.021 44.1065L142.95 44.1527Z" fill="#273340" stroke="white" stroke-width="0.391259" stroke-linejoin="round"/>
<path d="M165.54 39.4764H165.593L165.647 39.461L165.611 39.3841L165.54 39.4764ZM164.931 37.7539V37.8308L165.021 37.7847L164.931 37.7539ZM165.146 37.4002L165.11 37.6001L165.056 37.677L165.146 37.4002ZM165.307 37.0004L165.325 36.9081L165.289 37.0004H165.307ZM165.414 36.5851L165.468 36.4775L165.379 36.7543L165.414 36.5851ZM165.432 36.3544L165.504 36.0161L165.414 36.093L165.432 36.3544ZM165.754 34.8319L165.79 34.6935L165.772 34.7243L165.754 34.8319ZM165.683 34.4782L165.45 34.5551L165.092 34.6935L164.967 34.8319L165.021 34.8473L164.591 37.1388L164.752 37.5079L165.003 36.5544L165.468 35.3087L165.683 34.4936V34.4782ZM166.041 34.3552L165.987 34.3706L165.969 34.4321L165.88 34.9088L165.951 34.7397L166.041 34.3552ZM147.335 40.2453L147.21 40.3991L146.351 41.3372L145.671 41.7986L145.527 42.1984L144.489 43.3672L143.147 43.9824L143.021 44.1054L143.344 44.0593L146.405 43.521L147.622 43.3057L148.642 43.0596L148.928 43.0135L148.946 43.0443L153.565 42.3061L158.129 41.3064L165.289 39.5532L165.235 39.4764L165.217 39.4302L165.343 39.5379L165.486 39.5071L165.468 39.4917L165.343 38.9688L165.432 38.9842L165.719 39.4456L165.772 39.4302L165.808 39.4148L165.737 39.2918L165.003 38.3229L164.09 38.4613L163.678 38.7535L163.284 38.446L161.942 38.0615L161.011 38.0307L162.819 37.8923L163.821 38.4767L164.108 38.0922L163.302 37.2156L163.875 37.2464L163.571 36.539L162.855 36.5697L161.154 35.3856H160.939L163.338 36.4006L163.177 35.6931L163.338 35.4625L162.121 35.0626L161.065 35.0011L160.546 34.6012L160.116 34.8319L159.955 33.7708L160.134 33.8015L160.098 32.9403L160.062 32.9096L160.026 32.9249L159.991 32.9096L159.901 32.848L159.847 32.8019L159.275 32.5866L158.684 32.2175L157.861 32.033L157.807 32.0176V32.033L157.699 32.6789L156.035 32.0637L156.071 32.9557L155.158 34.4474L154.603 34.9703L154.245 35.8777L153.153 35.5547L152.616 37.6463L152.186 38.3537L152.115 39.2764L151.792 39.7224L150.593 40.03L149.609 40.6913L149.143 40.7528L148.696 41.0911L147.568 40.7374L147.371 40.2607L147.335 40.2453Z" fill="#273340"/>
<path d="M165.253 37.2157L165.235 37.0926M165.54 39.4764H165.593L165.647 39.461L165.611 39.3841L165.54 39.4764ZM164.931 37.7539V37.8308L165.021 37.7847L164.931 37.7539ZM165.146 37.4002L165.11 37.6001L165.056 37.677L165.146 37.4002ZM165.307 37.0004L165.325 36.9081L165.289 37.0004H165.307ZM165.414 36.5851L165.468 36.4775L165.379 36.7543L165.414 36.5851ZM165.432 36.3544L165.504 36.0161L165.414 36.093L165.432 36.3544ZM165.754 34.8319L165.79 34.6935L165.772 34.7243L165.754 34.8319ZM165.683 34.4782L165.45 34.5551L165.092 34.6935L164.967 34.8319L165.021 34.8473L164.591 37.1388L164.752 37.5079L165.003 36.5544L165.468 35.3087L165.683 34.4936V34.4782ZM166.041 34.3552L165.987 34.3706L165.969 34.4321L165.88 34.9088L165.951 34.7397L166.041 34.3552ZM147.335 40.2453L147.21 40.3991L146.351 41.3372L145.671 41.7986L145.527 42.1984L144.489 43.3672L143.147 43.9824L143.021 44.1054L143.344 44.0593L146.405 43.521L147.622 43.3057L148.642 43.0596L148.928 43.0135L148.946 43.0443L153.565 42.3061L158.129 41.3064L165.289 39.5532L165.235 39.4764L165.217 39.4302L165.343 39.5379L165.486 39.5071L165.468 39.4917L165.343 38.9688L165.432 38.9842L165.719 39.4456L165.772 39.4302L165.808 39.4148L165.737 39.2918L165.003 38.3229L164.09 38.4613L163.678 38.7535L163.284 38.446L161.942 38.0615L161.011 38.0307L162.819 37.8923L163.821 38.4767L164.108 38.0922L163.302 37.2156L163.875 37.2464L163.571 36.539L162.855 36.5697L161.154 35.3856H160.939L163.338 36.4006L163.177 35.6931L163.338 35.4625L162.121 35.0626L161.065 35.0011L160.546 34.6012L160.116 34.8319L159.955 33.7708L160.134 33.8015L160.098 32.9403L160.062 32.9096L160.026 32.9249L159.991 32.9096L159.901 32.848L159.847 32.8019L159.275 32.5866L158.684 32.2175L157.861 32.033L157.807 32.0176V32.033L157.699 32.6789L156.035 32.0637L156.071 32.9557L155.158 34.4474L154.603 34.9703L154.245 35.8777L153.153 35.5547L152.616 37.6463L152.186 38.3537L152.115 39.2764L151.792 39.7224L150.593 40.03L149.609 40.6913L149.143 40.7528L148.696 41.0911L147.568 40.7374L147.371 40.2607L147.335 40.2453Z" stroke="white" stroke-width="0.391259" stroke-linejoin="round"/>
<path d="M128.111 17.9L127.663 18.3768L127.395 19.0688L127.52 19.4533L128.111 17.9ZM117.836 14.286L118.105 13.963L117.908 14.1168L117.836 14.286ZM118.248 13.7785L118.158 13.6862L117.962 13.7939L118.248 13.7785ZM114.346 14.6397L113.934 15.0396L114.131 16.885L112.985 17.777L112.771 18.6382L113.397 19.1303L113.218 21.2526L113.88 21.6832L114.31 21.714L115.67 22.4214L116.53 23.1904L117.621 23.6671L117.872 24.8513V24.9282L118.391 25.4664L118.248 25.8817L118.427 26.789L118.964 27.4196L119.948 27.8656L119.931 27.9424L123.833 27.558L125.283 27.4042L127.699 27.112L127.628 26.8813V26.1585L127.144 25.3896L127.019 24.4207L127.252 23.3442L127.126 22.5137L127.556 21.4833L127.395 21.3141L127.431 20.3607L127.663 19.6379L127.395 19.3918L126.876 19.5456L126.589 20.1915L125.909 20.5298L126.124 19.7147L126.733 19.0227L126.768 18.7151L126.786 18.6997L125.927 17.9615V16.9158L124.96 16.2391L123.636 16.1622L122.275 15.8546L119.34 15.0857L118.767 14.8089L118.713 14.855L117.8 14.7474L117.496 14.9011L117.621 13.7785L116.154 14.4244L114.364 14.6705L114.346 14.6397ZM117.854 13.8246L117.818 13.717L117.693 13.7631L117.854 13.8246ZM117.21 13.717L117.263 13.6247L117.228 13.5939L117.21 13.717ZM118.516 13.4555L118.463 13.2402L118.409 13.5017L118.516 13.4555Z" fill="#273340" stroke="white" stroke-width="0.391259" stroke-linejoin="round"/>
<path d="M152.258 31.9882L149.716 32.5265L148.929 29.6045L148.893 29.6199L148.803 32.9879L148.231 33.726L147.568 34.1566L147.443 34.0336L146.709 34.8948L146.763 35.5715L146.315 35.633L145.707 36.4327L145.922 36.9556L145.653 37.4631L144.883 37.7861V37.8168L145.241 38.8933L146.262 39.9545L146.834 40.2313H147.282L147.336 40.2467L147.371 40.2621L147.568 40.7388L148.696 41.0925L149.144 40.7542L149.609 40.6927L150.593 40.0314L151.793 39.7238L152.115 39.2778L152.187 38.3551L152.616 37.6477L153.153 35.5561L154.245 35.8791L154.603 34.9717L155.158 34.4489L156.071 32.9571L156.035 32.0651L157.7 32.6803L157.807 32.0344V32.019L157.288 31.25L156.214 31.1424L155.588 31.5576V31.8652L155.051 31.9729L154.263 32.4496L153.851 32.5265L153.028 33.5261L152.616 31.9113L152.258 31.9882Z" fill="#273340" stroke="white" stroke-width="0.391259" stroke-linejoin="round"/>
<path d="M162.783 29.4496L162.855 29.6803L164.341 33.3251L166.041 32.8945L166.023 32.8638H166.059L166.113 32.8791L166.148 32.8638L166.113 32.8022L165.683 31.818L163.589 30.1109L163.678 28.9268H163.249L162.926 29.1421L162.783 29.4496Z" fill="#273340" stroke="white" stroke-width="0.391259" stroke-linejoin="round"/>
<path d="M159.901 32.8493L159.991 32.9109L160.027 32.9262L160.062 32.9109L160.098 32.9262L160.224 32.9878L160.259 33.0339V33.1415L160.295 33.2031L160.528 32.834L160.277 32.7109L159.973 32.7263L159.901 32.8493Z" fill="#273340" stroke="white" stroke-width="0.391259" stroke-linejoin="round"/>
<path d="M166.059 34.2936L166.184 33.4631L166.077 34.0783L166.005 34.3397L165.988 34.3705L166.041 34.3551L166.059 34.2936ZM166.149 32.8633L166.113 32.8787L166.149 32.971V33.1555V32.8633ZM152.616 31.9098L153.028 33.5246L153.851 32.525L154.263 32.4481L155.051 31.9714L155.588 31.8637V31.5561L156.214 31.1409L157.288 31.2486L157.807 32.0175L157.861 32.0329L158.684 32.2174L159.275 32.5865L159.848 32.8018L159.902 32.848L159.973 32.7249L160.277 32.7095L160.528 32.8326L160.295 33.2017V33.2171L159.955 34.109L161.065 34.7242L162.175 34.7703L162.909 35.0625L162.604 34.3243L161.656 34.0475L161.423 33.417L162.014 34.0937L162.497 34.1552L162.067 33.7861L161.727 32.6942L161.817 32.0636L161.441 31.3716L161.835 31.0948L162.121 30.2028L162.014 31.5254L162.318 31.9714L162.604 31.4485L162.766 32.3097L162.461 32.9402L163.338 33.2171L162.587 33.4324L162.98 34.0629L163.625 34.2474L163.983 33.7092L163.947 34.4627L164.556 34.4474L164.949 34.8318H164.967L165.093 34.6934L165.451 34.555L165.683 34.4781L165.665 34.4474L166.131 33.2632V33.2171L166.041 32.9095V32.8941L164.341 33.3247L162.855 29.6799L162.783 29.4492L162.479 29.5261L161.208 29.8644L154.209 31.5407L152.938 31.8329L152.616 31.9098Z" fill="#273340" stroke="white" stroke-width="0.391259" stroke-linejoin="round"/>
<path d="M167.026 29.3882L166.936 29.2036V29.3882H167.026ZM167.205 28.8191L167.258 28.3578L167.151 28.7576L167.205 28.8191ZM166.471 24.0978L164.591 23.698L164.269 23.6211L163.965 23.5596L163.213 24.9898L163.535 25.3281L163.517 26.3585L163.857 26.4047L164.555 27.9733L164.52 28.0194L163.642 29.1267L163.732 29.9726L165.844 30.5877L165.862 31.2951L166.345 30.7108L166.417 29.8649L166.918 29.5727L166.721 28.9422L167.097 28.1886V26.5431L166.972 26.0048L166.131 26.0202L166.345 25.282L166.471 24.0978Z" fill="#273340" stroke="white" stroke-width="0.391259" stroke-linejoin="round"/>
<path d="M166.417 25.3446L166.148 25.6676L166.077 25.7598L166.417 25.3446ZM168.887 24.5911L169.782 23.9144V23.8836L168.887 24.5911ZM166.542 25.0678V24.5449L166.488 24.8217L166.542 25.0678ZM170.695 22.6072L170.48 22.561L170.444 22.6994L170.695 22.6072ZM171.178 22.3304L171.16 22.4841L171.196 22.3919L171.178 22.3304ZM170.677 22.3457L169.478 23.2992L167.634 23.9759L167.151 24.3296L167.115 24.668L166.614 25.0217L166.685 25.483L167.455 25.2216L168.583 24.4373L169.836 23.8682L171.733 22.3304L170.39 23.207L169.961 23.3607L170.677 22.3457ZM171.232 21.6998L171.303 21.6076L171.089 21.8229L171.232 21.6998ZM151.112 21.1308L150.826 21.1001L151.041 21.3461L151.112 21.1308ZM157.055 16.4249L157.091 16.2557L156.948 16.4095L157.055 16.4249ZM157.144 15.3176L157.073 15.3483L156.983 15.5175L157.144 15.3176ZM149.573 24.0528L149.698 24.5142L150.647 24.7141L156.088 23.4376L161.566 22.0228L162.568 22.6841L162.765 23.0686L163.929 23.4992L163.964 23.5607L164.269 23.6222L164.591 23.6991L166.47 24.0989L166.435 24.022L166.596 24.6526L166.954 24.5757L167.151 23.8836V23.8682L166.828 23.6068L167.294 23.1147L167.079 22.884L166.399 20.6233L166.363 20.4695L166.273 20.4234L166.22 19.7467L166.166 19.0085L166.112 18.2088V18.1627L166.077 18.1781L165.182 15.6559L164.233 14.3795L163.964 12.857L163.159 11.2422L163.051 11.2883L159.31 12.3648L158.559 13.0569L157.717 14.441L157.753 14.7486L156.643 16.1942L157.323 16.3941L157.52 17.486L156.733 18.378L154.37 19.6083L153.922 19.4545L152.168 19.6698L150.539 20.5157L150.629 20.9616L151.202 21.3923L150.879 22.7456L149.591 24.0374L149.573 24.0528Z" fill="#273340" stroke="white" stroke-width="0.391259" stroke-linejoin="round"/>
<path d="M163.929 23.4988L162.765 23.0682L162.568 22.6838L161.566 22.0225L156.088 23.4373L150.647 24.7138L149.698 24.5138L149.573 24.0525L149.269 24.2524L148.785 24.5446L147.908 25.3135L147.801 25.3904L148.302 27.282L148.391 27.6204L148.839 29.2813L148.928 29.6042L149.716 32.5262L152.258 31.988L152.616 31.9111L152.938 31.8342L154.209 31.542L161.208 29.8657L162.479 29.5274L162.783 29.4505L162.926 29.1429L163.248 28.9276H163.678L163.732 28.7892L164.43 28.1125L164.501 28.0048L164.555 27.9741L163.857 26.4054L163.517 26.3593L163.535 25.3289L163.213 24.9906L163.965 23.5603L163.929 23.4988Z" fill="#273340" stroke="white" stroke-width="0.391259" stroke-linejoin="round"/>
<path d="M172.556 15.302H172.539L172.574 15.3174L172.556 15.302ZM173.881 12.0263L173.738 11.8417V11.934L173.881 12.0263ZM173.63 11.8571V11.7033L173.613 11.6111L173.63 11.8571ZM174.275 11.2112L174.239 11.1958L174.257 11.242L174.275 11.2112ZM176.065 10.4423L176.029 10.2116L175.957 10.3192L176.065 10.4423ZM175.617 10.5345L175.635 10.3654L175.42 10.3961L175.617 10.5345ZM176.28 10.027H176.208V10.0578L176.28 10.027ZM175.385 10.2577L175.224 10.227L175.206 10.3654L175.385 10.2577ZM176.298 9.78098L176.459 9.88863L176.405 9.7656L176.298 9.78098ZM175.814 9.79635L175.653 10.0578L175.868 9.96552L175.814 9.79635ZM175.045 9.81173L174.973 9.90401L175.027 10.0424L175.045 9.81173ZM176.101 9.30423L176.083 9.1812L176.029 9.25809L176.101 9.30423ZM176.011 9.36575L175.85 9.24271V9.35037L176.011 9.36575ZM175.009 9.71946L174.973 9.55029L174.901 9.6887L175.009 9.71946ZM176.709 9.1812L176.441 9.51953L176.423 9.27347L176.709 9.1812ZM178.016 8.15081L177.891 7.99703L177.819 8.02778L178.016 8.15081ZM178.499 7.45876L178.392 7.41263L178.374 7.45876H178.499ZM178.732 6.25921H178.571L178.75 6.30535L178.732 6.25921ZM179 6.413L178.947 6.13618L178.804 6.1208L179 6.413ZM178.714 6.16694L178.678 5.87474L178.553 6.07467L178.714 6.16694ZM168.332 8.58142L170.928 13.8102L170.963 13.9179L172.091 15.1021V15.0867L172.27 15.0405L172.306 14.1639L172.592 13.8564L172.771 13.0413L172.61 12.9029L172.914 12.1032L173.953 11.688L174.633 10.9805L174.883 9.75021L175.975 9.6887L175.832 9.05816L177.193 8.61217L177.282 7.92012L177.604 7.98164L178.499 7.35111L178.893 6.53602L177.98 5.7517L177.014 5.58253L176.656 4.952V4.58291L176.065 4.7367L175.403 4.53677V3.90624L173.613 0.584397L172.306 0L170.856 1.04576L170.462 0.984249L170.122 0.445988L169.657 0.599776L168.994 3.42949L169.227 4.35222L169.424 6.22845L168.905 7.67406L169.263 7.90475L168.833 8.61217L168.368 8.55066L168.332 8.58142Z" fill="#273340" stroke="white" stroke-width="0.391259" stroke-linejoin="round"/>
<path d="M130.724 18.4392L130.635 18.3162L130.617 18.47L130.724 18.4392ZM131.011 18.1624L130.796 17.9164L130.76 18.024L131.011 18.1624ZM131.19 17.0551L131.011 16.9167V16.9475L131.19 17.0551ZM130.742 29.0968L132.962 28.7892L133.588 28.6816L136.327 28.2663L136.381 28.4663L136.56 28.4201L137.741 28.2048L138.869 27.9742L140.014 27.7281L139.996 27.682L140.587 26.6823L140.533 25.8519L141.196 24.4216L141.715 24.6831L141.912 24.3601L141.858 23.1298L141.375 22.3609L140.659 20.7307L140.032 20.1309L139.71 20.054L138.547 20.7461L138.672 20.8845L138.063 21.8687L137.473 21.7765L137.294 20.7461L137.544 20.6692L138.063 19.6388L138.117 17.8241L137.311 16.2862L135.521 16.0248L135.342 15.7941L133.678 15.3788L132.926 16.1785L132.998 16.8706L132.425 17.4858L132.55 18.4392L131.995 18.7776V17.578L131.494 18.4854L130.903 19.2851L130.509 19.5465L130.706 20.3924L130.456 21.269L130.599 22.3609L130.42 22.8991L131.709 25.0214L131.87 25.8365L131.709 27.3436L130.85 29.0353L130.742 29.0968ZM134.573 15.2404L134.107 15.2712L134.394 15.4557L134.573 15.2404ZM131.852 15.6403H131.709L131.87 15.7018L131.852 15.6403ZM134.984 13.6872L134.805 13.4411L134.734 13.4565L134.984 13.6872ZM118.767 14.8098L119.34 15.0866L122.275 15.8556L123.636 16.1632L124.96 16.2401L125.927 16.9167V17.9625L126.786 18.7007V18.6853L127.484 16.9475L128.326 16.44L128.97 15.8248L129.077 16.3785L129.74 15.5019L131.333 14.979L131.458 14.7637L133.069 14.9329L133.696 15.2097L134 14.533L134.286 14.6868L135.539 14.5176L135.235 14.087L134.68 13.8102L134.788 12.8106L133.696 13.3334L132.693 13.2258L132.371 12.5645L132.478 12.3492L131.118 12.9028L130.241 12.949L128.666 13.7794L128.487 14.087L127.52 13.8871L126.912 14.1178L125.694 13.2104L122.991 12.503L122.938 12.2262L121.201 13.6564L120.217 13.8717L118.821 14.7791L118.767 14.8098ZM125.104 11.3188L123.009 12.2108L123.707 12.7952L123.976 12.2108L124.692 11.4572L125.104 11.3188ZM122.759 9.21191L121.327 10.0578L121.255 10.473L122.383 9.76555L122.759 9.21191Z" fill="#273340" stroke="white" stroke-width="0.391259" stroke-linejoin="round"/>
<path d="M16.6299 82.5695L16.5404 82.6003L16.612 82.6157L16.6299 82.5695ZM16.97 82.4004V82.4465L17.0058 82.4311L16.97 82.4004ZM17.149 82.4773V82.4465L17.1311 82.4619L17.149 82.4773ZM17.1132 82.4465V82.4311H17.0774L17.1132 82.4465ZM3.15117 72.3426L3.13327 72.4502L3.16907 72.7578L3.15117 72.3426ZM3.06167 71.9273L3.07957 72.0658L3.09747 72.0196L3.06167 71.9273ZM17.1132 82.262L17.1311 82.1697L17.0595 82.2004L17.1132 82.262ZM19.1538 83.0155L19.1359 83.0001L19.1717 83.0617L19.1538 83.0155ZM17.8292 82.4773L17.6323 82.3235V82.6926L17.8292 82.4773ZM18.2767 82.8156L18.2588 82.7079L17.9545 82.6926L18.2767 82.8156ZM19.3507 83.0309L19.3328 83.0617H19.3686L19.3507 83.0309ZM19.4223 83.0463H19.3865L19.4581 83.0617L19.4223 83.0463ZM19.6371 83.1078H19.6192H19.6013H19.6371ZM3.83137 72.6809L3.90297 72.6963L3.95667 72.6809H3.83137ZM19.2433 82.8925L19.1001 82.8771L19.1538 82.9232L19.2433 82.8925ZM2.86477 71.4814L2.61417 71.3891L2.59627 71.4352L2.86477 71.4814ZM19.6908 82.9233L19.655 82.9079V82.9233H19.6908ZM20.7827 83.1078L20.0846 83.1539L19.9235 83.2155L20.7827 83.1078ZM1.59387 69.0669H1.39697L1.43277 69.113L1.59387 69.0669ZM22.9486 83.8152V83.7537H22.9128L22.9486 83.8152ZM23.8794 83.8306L23.9152 83.7999L23.8794 83.7691V83.8306ZM24.5775 83.9998L24.6133 83.9844H24.5954L24.5775 83.9998ZM24.0047 83.723L23.9868 83.6614H23.951L24.0047 83.723ZM25.204 83.9536L25.1861 83.969H25.204V83.9536ZM1.70127 68.2826L1.43277 68.3133L1.77287 68.5748L1.70127 68.2826ZM24.2553 83.723L24.2911 83.6307H24.2732L24.2553 83.723ZM27.2804 83.4923L27.2983 83.4615L27.2625 83.4461L27.2804 83.4923ZM26.8329 83.3539L26.2064 83.8306L26.6539 83.7999L27.173 83.4461L26.8329 83.3539ZM27.9606 83.523L27.8353 83.4923L27.9248 83.5538L27.9606 83.523ZM28.2112 83.5384L28.0143 83.4923L27.9785 83.5077L28.2112 83.5384ZM27.531 83.3231H27.3341L27.6742 83.4L27.531 83.3231ZM28.3544 83.4769L28.3365 83.4462L28.2649 83.4615L28.3544 83.4769ZM27.8174 83.2924L27.7458 83.2616V83.4308L27.8174 83.2924ZM30.1086 83.6768L30.0907 83.6614H30.0549L30.1086 83.6768ZM30.1444 83.6614V83.6461L30.1086 83.6307L30.1444 83.6614ZM29.8401 83.5692L29.8759 83.6307V83.6153L29.8401 83.5692ZM30.0012 83.5692L29.8401 83.523L30.037 83.6461L30.0012 83.5692ZM32.364 83.6461L32.3282 83.5846H32.3103L32.364 83.6461ZM51.6244 82.6157L51.5886 82.5849L51.6065 82.6157H51.6244ZM29.9296 83.0924V83.077L29.9117 83.0924H29.9296ZM52.1435 82.3389L52.1972 82.4004H52.233L52.1435 82.3389ZM32.5788 83.4923L32.5609 83.5077V83.5538L32.5788 83.4923ZM30.3592 83.2155L30.395 83.0924H30.3771L30.3592 83.2155ZM53.1817 81.9851L53.0206 82.062L53.1638 82.1236L53.1817 81.9851ZM29.3389 82.8002L28.8914 82.8771L28.4976 83.3231L29.3389 82.8002ZM32.543 83.3846L32.4356 83.4615L32.543 83.4461V83.3846ZM53.1817 81.9083L53.1459 81.8467L53.128 81.8775L53.1817 81.9083ZM30.8246 82.9848L30.6993 82.9694L30.8246 83.077V82.9848ZM52.0003 82.1082L51.9645 82.1389L52.0003 82.2466V82.1082ZM31.111 82.9694L31.0573 82.9848L31.1289 83.0309L31.111 82.9694ZM32.4356 83.2924H32.3819L32.3461 83.2616L32.4356 83.2924ZM30.9678 82.9694L30.8783 82.9233L30.9141 82.9694H30.9678ZM32.1671 83.1386L32.006 83.1847L31.8986 83.4308L32.1671 83.1386ZM51.6065 82.062V82.1697L51.6781 82.0928L51.6065 82.062ZM30.0549 82.6464L30.1981 82.6157H30.1802L30.0549 82.6464ZM29.8759 82.5542L29.8401 82.5234V82.5388L29.8759 82.5542ZM51.6065 81.9544L51.5707 81.939L51.5528 81.9851L51.6065 81.9544ZM31.9702 82.8771L31.9344 82.8617L31.8986 82.9079L31.9702 82.8771ZM51.4275 81.9851L51.4454 81.9083L51.4096 81.8929L51.4275 81.9851ZM51.2843 81.9083L51.2306 81.9698L51.3201 81.9852L51.2843 81.9083ZM32.722 82.6618L32.6862 82.6311H32.6683L32.722 82.6618ZM51.2306 81.6314L51.3738 81.6776L51.4275 81.6161L51.2306 81.6314ZM51.4454 81.5238L51.3917 81.5545L51.4812 81.6007L51.4454 81.5238ZM51.0337 81.6161L50.9979 81.5545L50.9621 81.5853L51.0337 81.6161ZM52.8237 81.047L52.591 81.6161L52.8237 81.493V81.047ZM51.2485 81.2623L51.0874 81.4007L51.1232 81.5545L51.2485 81.2623ZM34.5836 82.4926V82.4311L34.5657 82.4619L34.5836 82.4926ZM51.0516 81.1086L51.5707 81.7852L52.7342 82.4158L52.4657 81.8775L51.3559 81.0624L51.0516 81.1086ZM33.8676 82.2466L33.8497 82.2005L33.8139 82.2158L33.8676 82.2466ZM51.6602 80.8471L51.5886 81.0778L51.7139 81.0009L51.6602 80.8471ZM52.0361 80.8471L52.0182 81.0009L52.1793 81.047L52.0361 80.8471ZM34.4404 82.0467L34.3509 82.0313L34.2614 82.062L34.4404 82.0467ZM36.2841 82.1697L36.2125 82.2774L36.2483 82.1851L36.2841 82.1697ZM36.5526 82.1851L36.3915 82.2005L36.481 82.2927L36.5526 82.1851ZM25.7052 80.2166L25.8842 80.2935L25.8484 80.2627L25.7052 80.2166ZM32.8652 81.7237H32.8831V81.7083L32.8652 81.7237ZM51.3738 80.5395L51.4633 80.8317L51.6423 80.7395L51.3738 80.5395ZM50.6041 80.6626L50.6936 81.37L50.8726 81.2162L50.6041 80.6626ZM50.6936 80.4319L51.1053 80.924L51.0516 80.6011L50.6936 80.4319ZM49.4227 80.5549L49.3153 80.8471L49.4585 80.6472L49.4227 80.5549ZM36.8032 81.3392L36.7674 81.2931L36.8032 81.3546V81.3392ZM49.4585 80.3242L50.1745 81.3392L50.0671 80.6472L49.4585 80.3242ZM37.8056 80.8625L37.7519 80.9086L37.8414 80.9394L37.8056 80.8625ZM37.5729 80.8932L37.5908 80.8471H37.5192L37.5729 80.8932ZM37.3939 80.8932L36.9285 81.1547L36.3557 81.8006L36.6421 82.062L37.9667 81.2162L37.3939 80.8932ZM48.6888 79.8936L48.5635 79.8321V79.9244L48.6888 79.8936ZM37.2865 80.7087L37.3044 80.7702L37.4297 80.8317L37.2865 80.7087ZM49.0289 79.6014L48.6709 79.7552L49.011 79.8475L49.0289 79.6014ZM48.7962 79.6014L48.7604 79.5707L48.7425 79.6014H48.7962ZM49.8881 79.3554L49.7449 79.3092L49.7091 79.4015L49.8881 79.3554ZM49.1184 79.463L48.9931 79.4476V79.4784L49.1184 79.463ZM49.5122 79.34L50.2461 80.2627L50.0492 79.4169L49.5122 79.34ZM37.6982 80.3396L37.2686 80.6164L37.4655 80.801L38.0383 80.4319L37.6982 80.3396ZM32.8294 79.7552L32.8115 79.7398V79.7552H32.8294ZM32.6325 79.6783L32.6146 79.6014V79.6322L32.6325 79.6783ZM38.1278 79.8782L38.092 79.8936V79.909L38.1278 79.8782ZM37.9488 79.8475H37.9309L37.8951 79.8936L37.9488 79.8475ZM38.3784 79.7245L38.3247 79.6937V79.7091L38.3784 79.7245ZM38.5216 79.7091L38.4679 79.6783V79.6937L38.5216 79.7091ZM38.2889 79.6629H38.2173V79.6783L38.2889 79.6629ZM41.851 79.3554L41.8689 79.3092L41.8331 79.34L41.851 79.3554ZM42.9429 78.8632L43.1577 78.6325L43.0861 78.6787L42.9429 78.8632ZM40.7591 78.8325L40.8307 78.7863L40.8486 78.7248L40.7591 78.8325ZM40.7591 78.6633L40.6875 78.7094L40.8128 78.6787L40.7591 78.6633ZM37.8235 78.6633L37.8056 78.6018H37.7877L37.8235 78.6633ZM40.6875 78.6479L40.6159 78.7094L40.5801 78.771L40.6875 78.6479ZM42.6565 78.4634H42.6744H42.6923H42.6565ZM42.746 78.4634L42.7102 78.448V78.4634H42.746ZM42.5312 78.448L42.5491 78.4634V78.448H42.5312ZM41.0634 78.5403L41.135 78.4787L41.0455 78.5403H41.0634ZM41.2782 78.4019L40.8486 79.0016L41.4035 78.448L41.2782 78.4019ZM40.7233 78.4787L40.6696 78.4172L40.6517 78.448L40.7233 78.4787ZM42.0837 78.3403L42.0479 78.325L42.0658 78.3403H42.0837ZM42.5491 78.3711V78.2634L42.5133 78.3096L42.5491 78.3711ZM29.4105 77.1869L28.5513 77.1562L29.142 77.6944L29.4105 77.1869ZM41.6362 78.2788L41.672 78.3865L41.7615 78.2634L41.6362 78.2788ZM40.9202 78.2634L40.8665 78.6018L40.956 78.3865L40.9202 78.2634ZM40.7412 78.0481L40.7591 78.0943L40.7949 78.0789L40.7412 78.0481ZM40.6517 78.1097L40.6159 78.0174L40.5622 78.0481L40.6517 78.1097ZM41.493 77.9251V77.8636L41.4393 77.8943L41.493 77.9251ZM40.6875 77.8328V77.9866L40.7412 77.879L40.6875 77.8328ZM29.9833 75.7413L30.0191 75.649L30.0012 75.6644L29.9833 75.7413ZM30.037 75.5875L30.0191 75.5721L30.0012 75.5875H30.037ZM31.2542 74.7878L31.1826 74.7571V74.7724L31.2542 74.7878ZM31.1468 74.7263V74.6955L31.111 74.7263H31.1468ZM28.2828 74.0035L28.247 73.9266L28.2291 73.8805L28.2828 74.0035ZM28.5513 73.7267H28.5692L28.5871 73.742L28.5513 73.7267ZM28.068 73.6498L27.9248 73.496L28.0322 73.619L28.068 73.6498ZM27.7816 73.4037H27.7458L27.7995 73.4191L27.7816 73.4037ZM32.5251 74.4341L32.3282 74.4495L32.4356 74.4956L32.5251 74.4341ZM27.5847 72.9423L27.4415 73.4037L27.889 73.4652L28.4797 73.9881L28.8377 73.8497L27.5847 72.9423ZM30.7172 73.1269V73.0961V73.1115V73.1269ZM29.8222 71.4967L29.7864 71.4813L29.8043 71.4967H29.8222ZM30.3413 71.6505L30.395 71.6351H30.3771L30.3413 71.6505ZM30.6993 71.5582H30.753L30.9141 71.4967L30.6993 71.5582ZM31.3437 71.3891L31.3795 71.3583L31.3258 71.3891H31.3437ZM31.4332 71.3737L31.5406 71.3275L31.4511 71.3429L31.4332 71.3737ZM31.7017 71.2814L31.6122 71.2968V71.3122L31.7017 71.2814ZM43.1935 68.4978L43.1219 68.4517L42.9966 68.4056L43.1935 68.4978ZM33.8139 68.1595L33.975 67.9749L33.8855 68.0365L33.8139 68.1595ZM34.0287 67.9442L34.1003 67.8519L34.0645 67.8827L34.0287 67.9442ZM34.1361 67.8212L34.2614 67.7289L34.1898 67.7596L34.1361 67.8212ZM39.7746 67.8519L39.8641 67.9288H39.9178L39.7746 67.8519ZM36.8927 66.8369L36.1588 67.3598L35.7113 67.2521L34.6731 67.7596L34.4762 67.652L33.2948 68.79L32.0955 69.0207L32.2029 69.5744L32.7399 70.2049L33.7423 71.0353L33.5812 71.3583L34.333 71.6351L33.9392 71.6966L33.4559 71.3737L33.7065 71.8504L33.3843 72.0196L32.364 71.2199L31.5585 71.3429L30.1802 71.7889L30.8067 72.3887L30.7172 72.7578L31.1289 73.1884L32.4893 73.6498L33.4738 73.2191L33.6349 73.5421L33.3664 74.511H32.543L31.5764 74.8801L31.5227 74.6186L31.0215 74.7878L30.7888 75.2338L29.9654 75.772V76.5564L30.2876 76.6794L30.037 77.3407L31.111 78.1404L31.7912 77.8943L31.648 78.8786L31.8449 79.0939L32.6683 79.2477L32.9726 79.5399L33.6886 79.586L34.0287 79.8936L34.7626 79.709L34.4225 80.1089L34.154 80.924L31.9702 82.1389L31.6838 82.385L31.2721 82.2466L30.6098 82.385L29.6611 82.9232L31.1468 82.5541L31.3616 82.831L33.2769 82.2927L33.3306 82.508L34.0824 81.8621L35.6576 80.924L35.7829 80.9855L37.1612 80.0474L36.8032 79.6783L37.2686 79.017L38.4858 77.7713L39.4166 77.6175L39.703 77.7867L38.5753 78.0635L38.271 79.0939L38.3068 79.6475L38.7006 79.6168L40.598 78.6325L40.7412 78.2634L40.5801 77.6944L41.1529 77.8174L41.5646 77.5868L42.746 78.2019L42.6565 78.3711L45.3415 78.6633L45.968 78.4941L46.147 78.7248L48.474 79.6783L48.8678 79.4784L48.9036 78.3249L49.2079 78.8478L50.7115 79.7859L50.8368 80.1704L52.1435 80.8009L52.4836 81.616L52.8058 80.9855L53.4681 82.0928L53.9156 81.4622L53.5576 80.6779L52.1793 80.5549L50.0671 78.8171L48.9215 78.0943L48.0444 78.8324H47.5253L46.326 78.1558L45.1446 78.1096L43.462 68.99L43.1756 68.5593L42.4954 68.2056L41.4751 68.3748L40.6875 68.2364L39.6851 67.8981L38.629 67.9596L38.3605 67.529L37.5192 67.4213L37.376 67.1599L37.0001 67.529L36.8927 66.8369Z" fill="#273340"/>
<path d="M17.2922 82.6618V82.6772M16.8089 82.3235V82.3081M30.2339 83.4154V83.4308M30.6814 83.1386L30.6635 83.1078M31.6122 82.2312H31.5943M32.8115 81.7391L32.8294 81.7237M33.3485 81.5545L33.3664 81.5392M35.1027 81.3085L35.0848 81.2931M25.383 75.7105L25.4009 75.649M39.3271 77.6483V77.6021M30.8246 75.2184V75.203M30.8246 75.1569L30.8067 75.1261M31.1468 74.7571H31.1289M27.8174 73.2345L27.7816 73.2192M16.6299 82.5695L16.5404 82.6003L16.612 82.6157L16.6299 82.5695ZM16.97 82.4004V82.4465L17.0058 82.4311L16.97 82.4004ZM17.149 82.4773V82.4465L17.1311 82.4619L17.149 82.4773ZM17.1132 82.4465V82.4311H17.0774L17.1132 82.4465ZM3.15117 72.3426L3.13327 72.4502L3.16907 72.7578L3.15117 72.3426ZM3.06167 71.9273L3.07957 72.0658L3.09747 72.0196L3.06167 71.9273ZM17.1132 82.262L17.1311 82.1697L17.0595 82.2004L17.1132 82.262ZM19.1538 83.0155L19.1359 83.0001L19.1717 83.0617L19.1538 83.0155ZM17.8292 82.4773L17.6323 82.3235V82.6926L17.8292 82.4773ZM18.2767 82.8156L18.2588 82.7079L17.9545 82.6926L18.2767 82.8156ZM19.3507 83.0309L19.3328 83.0617H19.3686L19.3507 83.0309ZM19.4223 83.0463H19.3865L19.4581 83.0617L19.4223 83.0463ZM19.6371 83.1078H19.6192H19.6013H19.6371ZM3.83137 72.6809L3.90297 72.6963L3.95667 72.6809H3.83137ZM19.2433 82.8925L19.1001 82.8771L19.1538 82.9232L19.2433 82.8925ZM2.86477 71.4814L2.61417 71.3891L2.59627 71.4352L2.86477 71.4814ZM19.6908 82.9233L19.655 82.9079V82.9233H19.6908ZM20.7827 83.1078L20.0846 83.1539L19.9235 83.2155L20.7827 83.1078ZM1.59387 69.0669H1.39697L1.43277 69.113L1.59387 69.0669ZM22.9486 83.8152V83.7537H22.9128L22.9486 83.8152ZM23.8794 83.8306L23.9152 83.7999L23.8794 83.7691V83.8306ZM24.5775 83.9998L24.6133 83.9844H24.5954L24.5775 83.9998ZM24.0047 83.723L23.9868 83.6614H23.951L24.0047 83.723ZM25.204 83.9536L25.1861 83.969H25.204V83.9536ZM1.70127 68.2826L1.43277 68.3133L1.77287 68.5748L1.70127 68.2826ZM24.2553 83.723L24.2911 83.6307H24.2732L24.2553 83.723ZM27.2804 83.4923L27.2983 83.4615L27.2625 83.4461L27.2804 83.4923ZM26.8329 83.3539L26.2064 83.8306L26.6539 83.7999L27.173 83.4461L26.8329 83.3539ZM27.9606 83.523L27.8353 83.4923L27.9248 83.5538L27.9606 83.523ZM28.2112 83.5384L28.0143 83.4923L27.9785 83.5077L28.2112 83.5384ZM27.531 83.3231H27.3341L27.6742 83.4L27.531 83.3231ZM28.3544 83.4769L28.3365 83.4462L28.2649 83.4615L28.3544 83.4769ZM27.8174 83.2924L27.7458 83.2616V83.4308L27.8174 83.2924ZM30.1086 83.6768L30.0907 83.6614H30.0549L30.1086 83.6768ZM30.1444 83.6614V83.6461L30.1086 83.6307L30.1444 83.6614ZM29.8401 83.5692L29.8759 83.6307V83.6153L29.8401 83.5692ZM30.0012 83.5692L29.8401 83.523L30.037 83.6461L30.0012 83.5692ZM32.364 83.6461L32.3282 83.5846H32.3103L32.364 83.6461ZM51.6244 82.6157L51.5886 82.5849L51.6065 82.6157H51.6244ZM29.9296 83.0924V83.077L29.9117 83.0924H29.9296ZM52.1435 82.3389L52.1972 82.4004H52.233L52.1435 82.3389ZM32.5788 83.4923L32.5609 83.5077V83.5538L32.5788 83.4923ZM30.3592 83.2155L30.395 83.0924H30.3771L30.3592 83.2155ZM53.1817 81.9851L53.0206 82.062L53.1638 82.1236L53.1817 81.9851ZM29.3389 82.8002L28.8914 82.8771L28.4976 83.3231L29.3389 82.8002ZM32.543 83.3846L32.4356 83.4615L32.543 83.4461V83.3846ZM53.1817 81.9083L53.1459 81.8467L53.128 81.8775L53.1817 81.9083ZM30.8246 82.9848L30.6993 82.9694L30.8246 83.077V82.9848ZM52.0003 82.1082L51.9645 82.1389L52.0003 82.2466V82.1082ZM31.111 82.9694L31.0573 82.9848L31.1289 83.0309L31.111 82.9694ZM32.4356 83.2924H32.3819L32.3461 83.2616L32.4356 83.2924ZM30.9678 82.9694L30.8783 82.9233L30.9141 82.9694H30.9678ZM32.1671 83.1386L32.006 83.1847L31.8986 83.4308L32.1671 83.1386ZM51.6065 82.062V82.1697L51.6781 82.0928L51.6065 82.062ZM30.0549 82.6464L30.1981 82.6157H30.1802L30.0549 82.6464ZM29.8759 82.5542L29.8401 82.5234V82.5388L29.8759 82.5542ZM51.6065 81.9544L51.5707 81.939L51.5528 81.9851L51.6065 81.9544ZM31.9702 82.8771L31.9344 82.8617L31.8986 82.9079L31.9702 82.8771ZM51.4275 81.9851L51.4454 81.9083L51.4096 81.8929L51.4275 81.9851ZM51.2843 81.9083L51.2306 81.9698L51.3201 81.9852L51.2843 81.9083ZM32.722 82.6618L32.6862 82.6311H32.6683L32.722 82.6618ZM51.2306 81.6314L51.3738 81.6776L51.4275 81.6161L51.2306 81.6314ZM51.4454 81.5238L51.3917 81.5545L51.4812 81.6007L51.4454 81.5238ZM51.0337 81.6161L50.9979 81.5545L50.9621 81.5853L51.0337 81.6161ZM52.8237 81.047L52.591 81.6161L52.8237 81.493V81.047ZM51.2485 81.2623L51.0874 81.4007L51.1232 81.5545L51.2485 81.2623ZM34.5836 82.4926V82.4311L34.5657 82.4619L34.5836 82.4926ZM51.0516 81.1086L51.5707 81.7852L52.7342 82.4158L52.4657 81.8775L51.3559 81.0624L51.0516 81.1086ZM33.8676 82.2466L33.8497 82.2005L33.8139 82.2158L33.8676 82.2466ZM51.6602 80.8471L51.5886 81.0778L51.7139 81.0009L51.6602 80.8471ZM52.0361 80.8471L52.0182 81.0009L52.1793 81.047L52.0361 80.8471ZM34.4404 82.0467L34.3509 82.0313L34.2614 82.062L34.4404 82.0467ZM36.2841 82.1697L36.2125 82.2774L36.2483 82.1851L36.2841 82.1697ZM36.5526 82.1851L36.3915 82.2005L36.481 82.2927L36.5526 82.1851ZM25.7052 80.2166L25.8842 80.2935L25.8484 80.2627L25.7052 80.2166ZM32.8652 81.7237H32.8831V81.7083L32.8652 81.7237ZM51.3738 80.5395L51.4633 80.8317L51.6423 80.7395L51.3738 80.5395ZM50.6041 80.6626L50.6936 81.37L50.8726 81.2162L50.6041 80.6626ZM50.6936 80.4319L51.1053 80.924L51.0516 80.6011L50.6936 80.4319ZM49.4227 80.5549L49.3153 80.8471L49.4585 80.6472L49.4227 80.5549ZM36.8032 81.3392L36.7674 81.2931L36.8032 81.3546V81.3392ZM49.4585 80.3242L50.1745 81.3392L50.0671 80.6472L49.4585 80.3242ZM37.8056 80.8625L37.7519 80.9086L37.8414 80.9394L37.8056 80.8625ZM37.5729 80.8932L37.5908 80.8471H37.5192L37.5729 80.8932ZM37.3939 80.8932L36.9285 81.1547L36.3557 81.8006L36.6421 82.062L37.9667 81.2162L37.3939 80.8932ZM48.6888 79.8936L48.5635 79.8321V79.9244L48.6888 79.8936ZM37.2865 80.7087L37.3044 80.7702L37.4297 80.8317L37.2865 80.7087ZM49.0289 79.6014L48.6709 79.7552L49.011 79.8475L49.0289 79.6014ZM48.7962 79.6014L48.7604 79.5707L48.7425 79.6014H48.7962ZM49.8881 79.3554L49.7449 79.3092L49.7091 79.4015L49.8881 79.3554ZM49.1184 79.463L48.9931 79.4476V79.4784L49.1184 79.463ZM49.5122 79.34L50.2461 80.2627L50.0492 79.4169L49.5122 79.34ZM37.6982 80.3396L37.2686 80.6164L37.4655 80.801L38.0383 80.4319L37.6982 80.3396ZM32.8294 79.7552L32.8115 79.7398V79.7552H32.8294ZM32.6325 79.6783L32.6146 79.6014V79.6322L32.6325 79.6783ZM38.1278 79.8782L38.092 79.8936V79.909L38.1278 79.8782ZM37.9488 79.8475H37.9309L37.8951 79.8936L37.9488 79.8475ZM38.3784 79.7245L38.3247 79.6937V79.7091L38.3784 79.7245ZM38.5216 79.7091L38.4679 79.6783V79.6937L38.5216 79.7091ZM38.2889 79.6629H38.2173V79.6783L38.2889 79.6629ZM41.851 79.3554L41.8689 79.3092L41.8331 79.34L41.851 79.3554ZM42.9429 78.8632L43.1577 78.6325L43.0861 78.6787L42.9429 78.8632ZM40.7591 78.8325L40.8307 78.7863L40.8486 78.7248L40.7591 78.8325ZM40.7591 78.6633L40.6875 78.7094L40.8128 78.6787L40.7591 78.6633ZM37.8235 78.6633L37.8056 78.6018H37.7877L37.8235 78.6633ZM40.6875 78.6479L40.6159 78.7094L40.5801 78.771L40.6875 78.6479ZM42.6565 78.4634H42.6744H42.6923H42.6565ZM42.746 78.4634L42.7102 78.448V78.4634H42.746ZM42.5312 78.448L42.5491 78.4634V78.448H42.5312ZM41.0634 78.5403L41.135 78.4787L41.0455 78.5403H41.0634ZM41.2782 78.4019L40.8486 79.0016L41.4035 78.448L41.2782 78.4019ZM40.7233 78.4787L40.6696 78.4172L40.6517 78.448L40.7233 78.4787ZM42.0837 78.3403L42.0479 78.325L42.0658 78.3403H42.0837ZM42.5491 78.3711V78.2634L42.5133 78.3096L42.5491 78.3711ZM29.4105 77.1869L28.5513 77.1562L29.142 77.6944L29.4105 77.1869ZM41.6362 78.2788L41.672 78.3865L41.7615 78.2634L41.6362 78.2788ZM40.9202 78.2634L40.8665 78.6018L40.956 78.3865L40.9202 78.2634ZM40.7412 78.0481L40.7591 78.0943L40.7949 78.0789L40.7412 78.0481ZM40.6517 78.1097L40.6159 78.0174L40.5622 78.0481L40.6517 78.1097ZM41.493 77.9251V77.8636L41.4393 77.8943L41.493 77.9251ZM40.6875 77.8328V77.9866L40.7412 77.879L40.6875 77.8328ZM29.9833 75.7413L30.0191 75.649L30.0012 75.6644L29.9833 75.7413ZM30.037 75.5875L30.0191 75.5721L30.0012 75.5875H30.037ZM31.2542 74.7878L31.1826 74.7571V74.7724L31.2542 74.7878ZM31.1468 74.7263V74.6955L31.111 74.7263H31.1468ZM28.2828 74.0035L28.247 73.9266L28.2291 73.8805L28.2828 74.0035ZM28.5513 73.7267H28.5692L28.5871 73.742L28.5513 73.7267ZM28.068 73.6498L27.9248 73.496L28.0322 73.619L28.068 73.6498ZM27.7816 73.4037H27.7458L27.7995 73.4191L27.7816 73.4037ZM32.5251 74.4341L32.3282 74.4495L32.4356 74.4956L32.5251 74.4341ZM27.5847 72.9423L27.4415 73.4037L27.889 73.4652L28.4797 73.9881L28.8377 73.8497L27.5847 72.9423ZM30.7172 73.1269V73.0961V73.1115V73.1269ZM29.8222 71.4967L29.7864 71.4813L29.8043 71.4967H29.8222ZM30.3413 71.6505L30.395 71.6351H30.3771L30.3413 71.6505ZM30.6993 71.5582H30.753L30.9141 71.4967L30.6993 71.5582ZM31.3437 71.3891L31.3795 71.3583L31.3258 71.3891H31.3437ZM31.4332 71.3737L31.5406 71.3275L31.4511 71.3429L31.4332 71.3737ZM31.7017 71.2814L31.6122 71.2968V71.3122L31.7017 71.2814ZM43.1935 68.4978L43.1219 68.4517L42.9966 68.4056L43.1935 68.4978ZM33.8139 68.1595L33.975 67.9749L33.8855 68.0365L33.8139 68.1595ZM34.0287 67.9442L34.1003 67.8519L34.0645 67.8827L34.0287 67.9442ZM34.1361 67.8212L34.2614 67.7289L34.1898 67.7596L34.1361 67.8212ZM39.7746 67.8519L39.8641 67.9288H39.9178L39.7746 67.8519ZM36.8927 66.8369L36.1588 67.3598L35.7113 67.2521L34.6731 67.7596L34.4762 67.652L33.2948 68.79L32.0955 69.0207L32.2029 69.5744L32.7399 70.2049L33.7423 71.0353L33.5812 71.3583L34.333 71.6351L33.9392 71.6966L33.4559 71.3737L33.7065 71.8504L33.3843 72.0196L32.364 71.2199L31.5585 71.3429L30.1802 71.7889L30.8067 72.3887L30.7172 72.7578L31.1289 73.1884L32.4893 73.6498L33.4738 73.2191L33.6349 73.5421L33.3664 74.511H32.543L31.5764 74.8801L31.5227 74.6186L31.0215 74.7878L30.7888 75.2338L29.9654 75.772V76.5564L30.2876 76.6794L30.037 77.3407L31.111 78.1404L31.7912 77.8943L31.648 78.8786L31.8449 79.0939L32.6683 79.2477L32.9726 79.5399L33.6886 79.586L34.0287 79.8936L34.7626 79.709L34.4225 80.1089L34.154 80.924L31.9702 82.1389L31.6838 82.385L31.2721 82.2466L30.6098 82.385L29.6611 82.9232L31.1468 82.5541L31.3616 82.831L33.2769 82.2927L33.3306 82.508L34.0824 81.8621L35.6576 80.924L35.7829 80.9855L37.1612 80.0474L36.8032 79.6783L37.2686 79.017L38.4858 77.7713L39.4166 77.6175L39.703 77.7867L38.5753 78.0635L38.271 79.0939L38.3068 79.6475L38.7006 79.6168L40.598 78.6325L40.7412 78.2634L40.5801 77.6944L41.1529 77.8174L41.5646 77.5868L42.746 78.2019L42.6565 78.3711L45.3415 78.6633L45.968 78.4941L46.147 78.7248L48.474 79.6783L48.8678 79.4784L48.9036 78.3249L49.2079 78.8478L50.7115 79.7859L50.8368 80.1704L52.1435 80.8009L52.4836 81.616L52.8058 80.9855L53.4681 82.0928L53.9156 81.4622L53.5576 80.6779L52.1793 80.5549L50.0671 78.8171L48.9215 78.0943L48.0444 78.8324H47.5253L46.326 78.1558L45.1446 78.1096L43.462 68.99L43.1756 68.5593L42.4954 68.2056L41.4751 68.3748L40.6875 68.2364L39.6851 67.8981L38.629 67.9596L38.3605 67.529L37.5192 67.4213L37.376 67.1599L37.0001 67.529L36.8927 66.8369Z" stroke="white" stroke-width="0.391259" stroke-linejoin="round"/>
</g>
<defs>
<clipPath id="clip0_170_1116">
<rect width="179" height="84" fill="white"/>
</clipPath>
</defs>
</svg>
