<svg width="24" height="24" viewBox="0 0 24 24" fill="none" xmlns="http://www.w3.org/2000/svg">
<g clip-path="url(#clip0_170_1107)">
<path fill-rule="evenodd" clip-rule="evenodd" d="M8.65528 0.474025C6.3354 1.14882 4.27296 2.5076 2.73739 4.37287C1.20181 6.23813 0.264483 8.52315 0.0478516 10.9295H5.53357C5.85158 7.26783 6.91323 3.70957 8.65357 0.47231L8.65528 0.474025ZM5.53357 13.0723H0.0478516C0.26403 15.4787 1.20095 17.7639 2.73623 19.6295C4.27151 21.4951 6.33375 22.8543 8.65357 23.5295C6.91323 20.2922 5.85158 16.7339 5.53357 13.0723ZM11.4033 23.9872C9.3235 20.6914 8.04911 16.9522 7.68328 13.0723H16.3147C15.9489 16.9522 14.6745 20.6914 12.5947 23.9872C12.1978 24.0064 11.8002 24.0064 11.4033 23.9872ZM15.3461 23.5277C17.6657 22.8526 19.7278 21.4937 21.263 19.6285C22.7983 17.7633 23.7353 15.4784 23.9519 13.0723H18.4661C18.1481 16.7339 17.0865 20.2922 15.3461 23.5295V23.5277ZM18.4661 10.9295H23.9519C23.7357 8.52307 22.7987 6.23782 21.2635 4.37224C19.7282 2.50667 17.666 1.14751 15.3461 0.47231C17.0865 3.70955 18.1482 7.26782 18.4661 10.9295ZM11.4033 0.0145961C11.8008 -0.00486535 12.1989 -0.00486535 12.5964 0.0145961C14.6756 3.3105 15.9494 7.0497 16.3147 10.9295H7.68499C8.05699 7.02602 9.33414 3.28374 11.4033 0.0145961Z" fill="white"/>
</g>
<defs>
<clipPath id="clip0_170_1107">
<rect width="24" height="24" fill="white"/>
</clipPath>
</defs>
</svg>
